<svg xmlns="http://www.w3.org/2000/svg" version="1.1" xmlns:xlink="http://www.w3.org/1999/xlink" xmlns:svgjs="http://svgjs.com/svgjs" width="2000.000000pt" height="2000.000000pt"><svg version="1.0" xmlns="http://www.w3.org/2000/svg" width="2000.000000pt" height="2000.000000pt" viewBox="0 0 2000.000000 2000.000000" preserveAspectRatio="xMidYMid meet">

<g transform="translate(0.000000,2000.000000) scale(0.100000,-0.100000)" fill="#000000" stroke="none">
<path d="M8558 19984 c-100 -24 -198 -88 -198 -129 0 -7 -6 -15 -12 -18 -16
-5 -16 -236 0 -246 5 -3 16 -66 23 -138 7 -73 16 -133 20 -133 4 0 10 -56 14
-125 4 -69 11 -125 15 -125 3 0 13 -99 20 -220 7 -121 16 -220 20 -220 7 0 30
-387 30 -497 0 -34 5 -65 10 -68 13 -8 14 -409 1 -433 -10 -18 -31 -380 -31
-519 0 -49 -4 -83 -10 -83 -5 0 -10 -20 -10 -45 0 -25 5 -45 10 -45 6 0 10
-68 10 -185 0 -117 -4 -185 -10 -185 -6 0 -10 -32 -10 -77 0 -105 -21 -357
-30 -363 -4 -3 -11 -42 -15 -87 -4 -46 -10 -83 -15 -83 -4 0 -13 -47 -20 -105
-6 -58 -16 -105 -20 -105 -4 0 -11 -25 -15 -55 -3 -30 -10 -55 -14 -55 -4 0
-13 -34 -20 -75 -7 -41 -16 -75 -21 -75 -4 0 -11 -22 -15 -50 -4 -27 -10 -50
-14 -50 -3 0 -12 -19 -19 -42 -8 -24 -23 -58 -34 -77 -19 -30 -24 -33 -58 -28
-21 3 -153 62 -293 131 -140 69 -257 126 -260 126 -6 0 -68 28 -222 100 -79
37 -153 69 -281 120 -146 59 -162 66 -259 110 -140 64 -892 370 -909 370 -5 0
-22 6 -39 14 -18 8 -117 51 -222 96 -218 93 -545 252 -591 287 -17 13 -34 23
-38 23 -7 0 -72 44 -311 208 -44 31 -160 113 -257 183 -258 186 -316 210 -541
217 -178 5 -240 -5 -355 -61 -88 -42 -139 -90 -149 -140 -3 -15 -10 -30 -14
-33 -12 -7 -12 -121 0 -128 4 -3 11 -29 15 -58 4 -29 11 -55 15 -58 4 -3 14
-36 23 -75 36 -155 41 -172 69 -227 5 -10 9 -27 9 -38 0 -11 4 -20 9 -20 5 0
12 -17 16 -37 4 -21 13 -49 20 -63 7 -14 16 -42 20 -63 4 -20 11 -37 15 -37 4
0 12 -25 19 -55 7 -30 16 -57 21 -60 4 -3 11 -23 15 -45 4 -22 11 -40 15 -40
5 0 14 -25 21 -55 7 -30 15 -55 19 -55 4 0 11 -17 15 -37 4 -21 10 -42 15 -48
4 -5 13 -34 20 -62 6 -29 16 -53 20 -53 5 0 11 -18 15 -40 4 -22 10 -40 14
-40 4 0 13 -25 20 -55 7 -30 16 -57 21 -60 4 -3 11 -21 14 -40 4 -19 11 -35
15 -35 5 0 14 -27 21 -60 7 -33 16 -60 20 -60 5 0 11 -18 15 -40 4 -22 10 -40
15 -40 4 0 13 -27 20 -60 7 -33 16 -60 20 -60 4 0 12 -25 19 -55 7 -30 16 -57
21 -60 4 -3 11 -20 14 -39 4 -20 13 -48 21 -63 8 -15 15 -35 15 -43 0 -8 7
-28 15 -43 8 -15 17 -43 21 -62 3 -19 10 -35 14 -35 4 0 13 -27 20 -60 7 -33
16 -60 20 -60 5 0 11 -18 15 -40 4 -22 10 -40 14 -40 4 0 13 -25 20 -55 7 -30
16 -57 21 -60 4 -3 11 -21 14 -40 4 -19 11 -35 15 -35 5 0 14 -27 21 -60 7
-33 16 -60 20 -60 5 0 11 -18 15 -40 4 -22 10 -40 15 -40 4 0 11 -17 15 -37 6
-34 17 -62 60 -158 7 -16 17 -42 20 -57 4 -16 11 -28 16 -28 5 0 9 -6 9 -12 0
-7 12 -35 25 -63 14 -27 25 -56 25 -62 0 -7 3 -13 8 -13 4 0 21 -29 37 -65 17
-36 33 -65 38 -65 4 0 7 -6 7 -13 0 -7 9 -30 21 -51 11 -21 18 -40 16 -42 -2
-2 -75 9 -163 26 -248 48 -440 77 -679 105 -121 13 -258 30 -305 36 -47 6
-238 15 -425 19 -401 10 -446 17 -637 106 -68 31 -139 61 -158 66 -100 27
-189 37 -318 37 -204 1 -312 -20 -876 -170 l-199 -53 -58 -55 c-104 -100 -139
-169 -147 -286 -5 -83 11 -185 29 -185 5 0 9 -6 9 -14 0 -24 133 -152 195
-188 33 -19 103 -51 155 -72 52 -20 103 -42 114 -48 63 -34 93 -53 125 -76 38
-28 112 -102 146 -147 11 -14 25 -31 30 -38 26 -31 91 -117 105 -137 8 -13 24
-33 35 -46 11 -12 29 -35 40 -50 27 -36 130 -139 190 -189 26 -22 60 -51 74
-64 34 -31 310 -228 386 -276 58 -36 189 -137 210 -160 6 -6 46 -38 90 -70 44
-32 85 -63 90 -70 6 -6 86 -67 179 -134 165 -118 321 -205 539 -297 37 -16 67
-31 67 -35 0 -18 -604 -24 -950 -9 -253 11 -350 26 -726 116 -349 83 -455 98
-649 91 -155 -5 -262 -28 -369 -77 -88 -40 -217 -149 -248 -209 -7 -14 -15
-28 -18 -31 -3 -3 -16 -27 -30 -55 -23 -45 -25 -62 -25 -170 0 -122 9 -154 60
-224 29 -41 526 -523 605 -588 19 -15 51 -44 72 -63 20 -19 55 -51 78 -70 23
-19 63 -55 89 -80 42 -39 118 -106 196 -175 67 -58 151 -133 174 -154 14 -13
93 -63 176 -111 137 -78 305 -192 313 -212 2 -4 8 -8 13 -8 4 0 28 -13 51 -29
133 -88 165 -107 243 -145 270 -130 424 -176 722 -215 149 -20 250 -50 330
-98 130 -78 164 -101 227 -156 74 -64 212 -164 256 -184 115 -54 288 -120 555
-214 94 -32 179 -63 190 -69 11 -5 59 -25 106 -44 47 -19 122 -51 165 -71 43
-20 133 -59 199 -86 66 -28 129 -54 140 -59 11 -5 83 -33 160 -61 689 -254
1369 -339 2975 -369 419 -8 497 -12 660 -34 172 -23 525 -81 560 -91 42 -13
322 -55 365 -55 29 0 83 11 128 27 84 29 93 42 57 83 -11 13 -20 28 -20 34 0
15 -69 74 -107 93 -18 8 -42 25 -55 37 -13 12 -43 38 -68 57 -71 58 -120 107
-120 121 0 26 -99 101 -280 213 -72 44 -146 95 -166 113 -11 11 -42 36 -70 57
-70 53 -308 297 -409 420 -87 105 -82 98 -120 155 -28 42 -36 52 -75 100 -8
10 -24 30 -34 45 -11 14 -28 36 -38 47 -10 12 -18 24 -18 27 0 3 -16 23 -35
45 -19 21 -35 41 -35 45 0 4 -12 20 -27 37 -16 17 -41 50 -58 75 -16 24 -34
49 -40 55 -5 6 -19 23 -30 38 -11 15 -28 37 -37 48 -10 12 -18 24 -18 28 0 4
-8 16 -17 28 -10 11 -27 33 -38 48 -11 15 -24 32 -30 38 -5 6 -23 31 -40 56
-16 25 -33 50 -38 55 -27 36 -94 126 -107 145 -8 12 -19 28 -25 34 -14 16 -65
121 -65 134 0 7 -4 12 -9 12 -5 0 -15 25 -22 55 -7 30 -16 55 -20 55 -5 0 -11
16 -15 35 -3 19 -10 35 -14 35 -4 0 -13 27 -20 60 -7 33 -16 60 -20 60 -4 0
-11 12 -15 27 -3 14 -15 38 -26 51 -10 14 -19 31 -19 38 0 8 -3 14 -7 14 -5 0
-21 26 -38 58 -16 31 -33 59 -36 62 -4 3 -9 15 -13 27 -4 13 -13 29 -19 35
-16 17 -67 120 -67 135 0 6 -5 13 -10 15 -6 2 -14 29 -17 61 -3 31 -10 57 -14
57 -5 0 -9 34 -9 75 0 41 4 75 8 75 5 0 12 60 15 132 3 80 10 134 16 136 6 2
11 10 11 18 0 8 2 14 4 14 2 0 44 -20 92 -44 94 -47 178 -85 284 -131 101 -43
182 -81 355 -166 147 -73 214 -108 318 -167 20 -12 53 -31 72 -42 67 -38 100
-58 190 -110 50 -29 101 -60 115 -67 14 -8 43 -26 65 -39 22 -13 57 -33 78
-44 21 -12 95 -57 163 -101 69 -43 127 -79 129 -79 5 0 109 -64 142 -87 17
-13 34 -23 38 -23 3 0 26 -13 50 -30 24 -16 46 -30 49 -30 3 0 28 -16 55 -35
26 -19 52 -35 55 -35 4 0 27 -14 51 -30 24 -16 46 -30 49 -30 3 0 28 -16 55
-35 26 -19 52 -35 56 -35 4 0 29 -16 55 -35 26 -19 50 -35 53 -35 4 0 50 -29
104 -64 54 -35 122 -75 152 -90 29 -15 63 -37 75 -49 12 -12 55 -51 95 -86 40
-36 85 -76 100 -90 15 -15 54 -49 86 -76 31 -28 71 -63 89 -78 44 -40 192
-126 376 -219 34 -17 317 -219 357 -255 17 -15 40 -35 50 -44 10 -9 59 -60
108 -114 50 -53 104 -112 120 -129 17 -18 44 -52 60 -76 17 -25 35 -51 42 -58
6 -6 15 -21 18 -32 3 -11 11 -20 16 -20 5 0 9 -6 9 -14 0 -8 6 -21 13 -28 7
-7 26 -40 42 -73 17 -33 35 -66 42 -73 6 -6 15 -22 19 -34 3 -12 10 -26 15
-32 40 -48 49 -60 49 -66 0 -4 8 -16 18 -28 9 -11 24 -30 32 -42 68 -99 118
-140 212 -175 178 -65 211 -80 249 -117 45 -44 51 -82 22 -145 -34 -73 -6 -67
-488 -102 -242 -17 -534 -35 -650 -41 -369 -17 -1257 -31 -2045 -33 -730 -2
-778 -1 -1045 22 -261 22 -347 24 -1280 31 l-1000 7 -245 39 c-229 36 -259 38
-465 39 -199 0 -228 -2 -305 -23 -131 -36 -183 -65 -208 -116 -28 -56 -29
-119 -2 -144 12 -11 81 -33 172 -56 84 -21 189 -53 233 -72 95 -41 382 -125
526 -154 239 -48 327 -55 629 -50 550 8 874 2 1395 -24 934 -48 1141 -55 1833
-68 1176 -20 1963 14 2902 127 405 49 1014 148 1051 170 4 3 72 24 151 46 79
22 161 46 183 54 51 17 224 83 250 95 11 5 108 46 215 90 107 44 204 85 215
90 11 5 52 21 90 36 74 28 254 115 370 179 75 41 256 158 277 178 7 7 49 39
93 72 44 32 84 64 88 72 4 7 13 13 19 13 6 0 38 20 72 44 34 24 78 53 99 65
72 41 102 58 142 82 22 13 55 33 74 44 34 20 198 135 234 164 131 105 240 213
315 311 23 30 46 60 51 66 4 5 14 21 21 35 7 13 19 28 26 32 8 4 14 15 14 22
0 8 4 15 9 15 5 0 12 8 16 19 3 10 14 29 25 42 11 13 23 29 28 34 4 6 14 26
22 45 8 19 20 41 27 48 7 7 13 20 13 28 0 8 4 14 8 14 5 0 15 18 22 40 7 22
17 40 22 40 4 0 8 5 8 11 0 5 9 29 19 52 11 24 23 55 26 70 4 15 11 27 16 27
5 0 9 7 9 16 0 8 9 34 19 57 11 23 22 59 26 80 4 20 11 39 15 42 5 3 11 23 15
45 4 22 10 40 15 40 4 0 13 27 20 60 7 33 16 60 20 60 4 0 13 27 20 60 7 33
16 60 21 60 4 0 11 16 15 35 3 19 9 35 13 35 4 0 13 22 20 50 7 27 16 50 21
50 4 0 11 16 14 35 4 19 10 35 15 35 4 0 14 18 21 40 7 22 17 40 21 40 4 0 10
14 14 30 4 16 11 30 15 30 5 0 15 18 21 40 7 22 15 40 19 40 3 0 19 29 35 65
16 36 33 65 37 65 4 0 8 5 8 12 0 6 10 25 23 42 12 17 34 54 47 81 14 28 27
52 30 55 10 10 49 96 55 123 4 15 11 27 15 27 5 0 11 14 15 31 4 17 13 42 21
57 7 15 16 46 20 69 3 24 10 43 14 43 4 0 11 17 15 38 4 20 10 42 15 47 4 6
13 34 20 64 7 30 19 66 26 80 8 14 14 34 14 43 0 9 6 18 13 21 16 5 17 257 1
278 -7 8 -15 29 -19 47 -3 17 -10 32 -15 32 -4 0 -10 10 -14 23 -3 13 -13 33
-23 44 -10 12 -27 34 -38 49 -61 83 -152 137 -324 194 -365 119 -748 119
-1071 0 -172 -63 -242 -116 -514 -386 -111 -109 -182 -169 -322 -269 -98 -70
-186 -135 -194 -144 -14 -15 -61 -50 -193 -143 -94 -66 -223 -162 -247 -184
-26 -24 -92 -75 -220 -171 -41 -31 -77 -60 -80 -64 -3 -3 -41 -35 -85 -69 -73
-58 -118 -96 -185 -154 -14 -12 -52 -42 -85 -65 -33 -24 -64 -49 -70 -56 -5
-6 -39 -33 -75 -59 -36 -26 -69 -54 -73 -62 -4 -8 -13 -14 -20 -14 -12 -1 -34
-17 -203 -145 -43 -33 -83 -63 -89 -67 -5 -4 -23 -19 -39 -33 -17 -14 -74 -58
-128 -97 -94 -67 -148 -121 -148 -147 0 -7 -8 -31 -19 -54 -10 -23 -22 -57
-26 -75 -3 -17 -10 -32 -15 -32 -4 0 -11 -18 -15 -40 -4 -22 -10 -40 -15 -40
-4 0 -13 -22 -20 -50 -7 -27 -15 -50 -19 -50 -4 0 -13 -25 -20 -55 -7 -30 -16
-55 -21 -55 -4 0 -11 -18 -15 -40 -4 -22 -10 -40 -15 -40 -4 0 -13 -22 -20
-50 -7 -27 -16 -50 -20 -50 -5 0 -11 -18 -15 -40 -4 -22 -11 -40 -15 -40 -5 0
-14 -25 -21 -55 -7 -30 -16 -55 -20 -55 -5 0 -12 -18 -15 -40 -4 -22 -10 -40
-15 -40 -4 0 -13 -25 -20 -55 -7 -30 -16 -55 -20 -55 -5 0 -11 -15 -15 -34
-10 -54 -28 -51 -48 7 -14 43 -17 77 -13 192 4 130 31 323 47 335 4 3 10 22
14 42 4 20 13 50 21 65 8 15 15 34 15 41 0 28 148 332 161 332 4 0 11 9 14 21
8 26 153 169 171 169 16 0 76 55 262 242 134 134 522 530 742 758 61 63 140
145 175 181 35 36 90 89 122 116 142 125 237 203 246 203 5 0 30 15 56 33 25
18 64 42 86 52 22 11 47 25 55 31 8 5 49 25 90 44 41 18 104 47 140 63 130 58
347 168 415 211 135 84 313 193 375 229 14 7 66 38 115 67 113 66 365 192 540
271 35 16 158 84 234 130 40 24 88 52 105 63 44 26 309 216 321 230 6 6 33 29
60 51 28 22 63 51 80 65 42 36 314 310 355 359 82 97 111 133 130 161 8 12 24
32 35 44 11 13 27 33 35 46 8 12 20 28 26 34 6 6 17 22 24 36 7 13 17 29 22
34 40 49 48 60 48 67 0 4 6 14 13 21 23 24 67 94 67 106 0 7 4 12 9 12 5 0 12
11 15 25 4 14 10 25 15 25 5 0 15 16 21 35 6 19 15 35 20 35 4 0 11 11 14 25
4 14 10 25 15 25 5 0 14 20 21 45 7 25 17 45 21 45 5 0 9 6 9 13 0 7 9 30 19
51 11 21 23 51 26 67 4 16 10 29 15 29 4 0 13 30 20 68 7 37 17 69 21 72 5 3
11 38 15 78 4 40 11 72 15 72 5 0 9 70 9 155 0 85 -4 155 -9 155 -4 0 -11 30
-14 67 -4 37 -10 69 -15 72 -5 3 -15 34 -22 69 -7 34 -16 62 -21 62 -4 0 -11
10 -15 22 -9 28 -77 92 -123 115 -29 15 -60 18 -166 17 -170 -1 -264 -19 -765
-147 -157 -40 -232 -61 -750 -201 -212 -57 -448 -121 -525 -141 -77 -20 -165
-43 -195 -51 -74 -20 -208 -60 -245 -73 -34 -13 -593 -165 -643 -176 -30 -6
-33 -5 -29 11 3 11 9 36 13 57 3 20 10 37 14 37 5 0 11 23 15 50 4 28 11 50
16 50 5 0 9 11 9 24 0 13 3 26 8 28 4 2 24 55 45 118 21 63 42 124 46 135 35
85 61 158 61 170 0 8 4 15 9 15 5 0 14 23 21 50 7 28 16 50 21 50 5 0 9 5 9
11 0 5 8 29 19 52 10 23 28 63 40 89 11 26 21 52 21 57 0 6 4 11 9 11 4 0 14
20 21 45 7 25 16 45 21 45 4 0 10 14 14 30 4 17 10 30 14 30 5 0 14 20 21 45
7 25 16 45 21 45 4 0 10 14 14 30 4 17 10 30 15 30 4 0 14 23 21 50 7 28 16
50 21 50 4 0 8 5 8 11 0 5 9 30 20 55 11 24 23 58 27 74 3 17 9 30 14 30 4 0
11 16 15 35 3 19 10 37 14 40 5 3 14 31 21 63 7 31 16 62 20 67 4 6 10 33 14
60 4 28 11 55 16 60 4 6 13 60 20 120 13 125 4 943 -12 1055 -5 36 -14 121
-21 190 -6 69 -14 127 -18 130 -3 3 -11 68 -16 145 -10 140 -1 305 17 305 5 0
9 18 9 40 0 22 -4 40 -8 40 -5 0 -12 19 -18 42 -12 56 -68 99 -177 134 -72 24
-98 27 -222 28 -126 1 -147 -2 -205 -24 -77 -29 -129 -57 -167 -91 -16 -13
-68 -53 -118 -89 -49 -36 -97 -72 -105 -80 -8 -8 -67 -53 -130 -99 -63 -46
-122 -91 -131 -100 -9 -9 -59 -46 -110 -83 -272 -196 -389 -278 -393 -278 -16
0 -322 -210 -336 -231 -3 -4 -32 -27 -65 -51 -137 -102 -325 -286 -411 -404
-10 -14 -28 -36 -39 -48 -11 -13 -27 -33 -35 -46 -8 -12 -20 -28 -26 -34 -6
-6 -17 -22 -24 -36 -7 -13 -17 -29 -22 -34 -8 -11 -16 -20 -88 -106 -65 -76
-174 -187 -300 -301 -68 -63 -145 -134 -171 -159 -25 -25 -89 -85 -143 -135
-126 -116 -320 -309 -371 -370 -22 -25 -44 -52 -50 -58 -5 -7 -23 -32 -40 -57
-16 -25 -36 -51 -42 -58 -7 -7 -13 -20 -13 -27 0 -7 -6 -20 -14 -27 -7 -8 -26
-41 -41 -74 -16 -32 -31 -61 -35 -64 -4 -3 -10 -15 -14 -27 -4 -13 -11 -23
-15 -23 -4 0 -14 -18 -21 -40 -7 -22 -16 -40 -20 -40 -9 0 -51 115 -57 158 -3
17 -9 32 -13 32 -4 0 -10 21 -14 46 -3 26 -10 52 -15 58 -4 6 -14 41 -21 79
-7 37 -16 67 -20 67 -5 0 -11 23 -15 50 -4 28 -10 50 -15 50 -4 0 -14 29 -21
65 -7 36 -16 65 -20 65 -4 0 -10 18 -14 40 -4 22 -10 40 -14 40 -4 0 -13 29
-20 65 -7 36 -17 65 -21 65 -4 0 -13 27 -19 60 -7 33 -16 62 -20 65 -5 2 -12
25 -15 50 -4 25 -11 45 -15 45 -5 0 -14 27 -20 60 -7 33 -16 62 -21 65 -4 3
-11 23 -15 45 -4 22 -10 40 -15 40 -4 0 -13 27 -20 60 -7 33 -16 60 -20 60 -5
0 -11 18 -15 40 -4 22 -10 40 -15 40 -4 0 -13 27 -20 60 -7 33 -16 60 -20 60
-5 0 -11 18 -15 40 -4 22 -10 40 -14 40 -4 0 -14 25 -21 55 -7 30 -16 55 -20
55 -4 0 -11 16 -14 35 -4 19 -11 35 -15 35 -5 0 -12 12 -16 27 -3 15 -15 46
-26 70 -10 23 -19 47 -19 52 0 6 -4 11 -9 11 -5 0 -15 17 -22 38 -6 20 -15 39
-18 42 -3 3 -19 32 -36 65 -16 33 -32 62 -35 65 -3 3 -18 32 -35 65 -16 33
-33 61 -37 63 -4 2 -12 19 -18 38 -6 19 -16 34 -21 34 -5 0 -9 6 -9 14 0 8 -6
21 -13 28 -7 7 -19 29 -27 48 -8 19 -20 41 -27 48 -7 7 -13 20 -13 28 0 8 -4
14 -9 14 -5 0 -15 16 -21 35 -6 19 -15 35 -20 35 -4 0 -11 11 -14 25 -4 14
-11 25 -16 25 -6 0 -10 5 -10 10 0 13 -149 238 -177 268 -6 6 -15 21 -18 32
-3 11 -11 20 -16 20 -5 0 -9 6 -9 13 0 8 -9 24 -20 37 -11 13 -20 26 -20 30 0
6 -8 17 -48 66 -5 5 -15 21 -22 34 -7 13 -18 30 -24 37 -6 8 -16 19 -21 26 -6
7 -16 25 -23 40 -6 15 -17 33 -22 40 -39 46 -50 62 -55 78 -4 11 -11 19 -16
19 -5 0 -9 4 -9 9 0 9 -116 187 -130 201 -3 3 -19 25 -35 50 -17 25 -36 51
-42 58 -7 7 -13 16 -13 20 0 4 -13 21 -29 37 -15 17 -34 42 -41 55 -7 13 -17
29 -22 34 -40 49 -48 60 -48 66 0 4 -8 16 -17 28 -10 11 -27 33 -38 48 -11 15
-24 32 -30 38 -5 6 -23 30 -39 54 -16 23 -32 42 -37 42 -4 0 -10 8 -13 18 -3
9 -19 31 -34 47 -16 17 -32 37 -38 46 -12 21 -117 146 -197 234 -51 56 -84 95
-107 125 -14 18 -32 41 -40 51 -8 10 -24 30 -35 44 -11 14 -35 42 -52 62 -18
20 -33 39 -33 44 0 4 -16 24 -35 44 -19 21 -37 45 -40 54 -3 10 -17 24 -30 31
-14 7 -25 17 -25 21 0 13 -81 64 -130 82 -57 21 -248 22 -332 1z m844 -1695
c21 -30 41 -58 45 -64 5 -5 22 -30 38 -55 17 -25 36 -51 43 -58 6 -7 12 -17
12 -21 0 -7 8 -18 48 -67 5 -5 15 -21 22 -34 7 -13 18 -30 24 -37 6 -8 16 -19
21 -26 6 -7 16 -25 23 -40 6 -15 17 -33 22 -40 41 -48 50 -62 50 -73 0 -7 6
-19 13 -26 15 -15 40 -59 58 -100 6 -16 15 -28 19 -28 5 0 14 -16 20 -35 6
-19 15 -35 20 -35 4 0 11 -11 14 -25 4 -14 11 -25 16 -25 6 0 10 -7 10 -16 0
-17 47 -110 68 -132 6 -7 12 -20 12 -27 0 -7 6 -20 13 -27 6 -7 25 -40 42 -73
16 -33 32 -62 36 -65 4 -3 11 -18 14 -33 4 -15 11 -27 15 -27 5 0 14 -16 20
-35 6 -19 15 -35 20 -35 5 0 11 -13 15 -30 4 -16 10 -30 14 -30 4 0 14 -18 21
-40 7 -22 17 -40 21 -40 4 0 10 -13 14 -29 3 -16 12 -35 20 -41 8 -6 17 -25
20 -41 4 -16 11 -29 16 -29 5 0 9 -5 9 -12 0 -6 9 -30 19 -52 41 -86 60 -133
67 -161 4 -17 10 -34 14 -40 4 -5 11 -28 15 -50 4 -22 10 -44 15 -50 4 -5 13
-41 20 -80 7 -38 16 -74 20 -80 4 -5 11 -31 14 -57 4 -27 11 -48 17 -48 5 0 9
-9 9 -21 0 -26 39 -121 56 -135 7 -6 18 -31 25 -57 6 -26 15 -47 19 -47 5 0
11 -18 15 -40 4 -22 10 -40 14 -40 4 0 14 -25 21 -55 7 -30 16 -55 20 -55 4 0
11 -17 15 -37 3 -21 13 -47 20 -59 7 -12 17 -37 20 -58 4 -20 11 -36 15 -36 4
0 13 -26 20 -57 7 -32 16 -62 20 -68 5 -5 11 -27 15 -47 4 -21 11 -38 15 -38
4 0 13 -34 20 -75 7 -41 16 -75 20 -75 4 0 11 -25 15 -55 3 -30 10 -55 14 -55
5 0 14 -48 21 -107 7 -60 17 -110 21 -113 4 -3 11 -53 15 -110 4 -58 11 -108
15 -111 5 -3 10 -214 11 -469 2 -364 0 -464 -9 -467 -8 -3 -13 -21 -13 -44 0
-21 -5 -39 -10 -39 -6 0 -40 18 -76 40 -36 22 -68 40 -71 40 -3 0 -17 8 -31
19 -15 10 -63 39 -107 63 -111 62 -142 80 -220 127 -37 23 -70 41 -73 41 -3 0
-19 10 -36 23 -17 12 -42 28 -56 35 -14 6 -54 30 -89 52 -34 22 -65 40 -68 40
-2 0 -24 14 -48 30 -24 17 -46 30 -50 30 -3 0 -21 11 -39 25 -18 14 -36 25
-40 25 -4 0 -50 29 -102 65 -52 36 -97 65 -99 65 -3 0 -71 48 -152 106 -81 59
-154 109 -163 112 -8 3 -37 22 -65 42 -45 33 -110 67 -215 113 -19 8 -82 32
-140 52 -220 79 -243 99 -202 179 37 73 72 153 72 164 0 7 4 12 10 12 5 0 12
11 16 25 3 14 9 25 14 25 4 0 12 18 19 40 6 22 16 40 21 40 4 0 11 14 15 30 4
17 10 30 14 30 4 0 14 25 21 55 7 30 17 55 21 55 4 0 10 18 14 40 4 22 10 42
15 45 4 3 14 34 21 70 7 36 16 65 20 65 4 0 10 21 14 48 4 26 11 49 15 52 5 3
14 42 21 88 8 45 17 82 20 82 4 0 11 26 15 58 4 31 10 59 15 62 4 3 13 55 20
115 7 61 16 113 21 116 4 3 11 67 15 142 3 76 10 140 15 143 12 7 10 251 -2
259 -6 4 -10 80 -10 195 0 115 4 191 10 195 6 4 10 57 10 128 -1 245 22 932
31 949 5 10 9 42 9 71 0 52 14 81 35 74 5 -2 27 -28 47 -58z m5715 -1159 c14
0 15 -17 10 -146 -4 -81 -11 -151 -16 -158 -5 -6 -12 -48 -16 -93 -4 -46 -11
-83 -15 -83 -13 0 -23 -176 -24 -441 -1 -169 -5 -261 -13 -270 -6 -8 -14 -41
-18 -74 -4 -33 -10 -64 -15 -70 -4 -5 -13 -40 -21 -77 -7 -38 -16 -68 -20 -68
-4 0 -10 -18 -14 -40 -4 -22 -10 -40 -14 -40 -4 0 -14 -25 -21 -55 -7 -30 -17
-55 -21 -55 -5 0 -11 -16 -15 -35 -3 -19 -10 -35 -14 -35 -4 0 -11 -12 -15
-27 -3 -16 -15 -46 -25 -68 -49 -106 -60 -132 -60 -142 0 -6 -3 -13 -8 -15 -4
-1 -21 -37 -37 -78 -16 -41 -32 -77 -36 -80 -4 -3 -12 -24 -19 -47 -7 -24 -16
-43 -20 -43 -4 0 -11 -16 -14 -35 -4 -19 -10 -35 -15 -35 -4 0 -14 -25 -21
-55 -7 -30 -16 -55 -20 -55 -4 0 -11 -16 -14 -35 -4 -19 -11 -35 -15 -35 -5 0
-14 -27 -21 -60 -7 -33 -16 -60 -20 -60 -5 0 -11 -18 -15 -40 -4 -22 -11 -40
-15 -40 -5 0 -14 -25 -21 -55 -7 -30 -16 -55 -21 -55 -4 0 -8 -7 -8 -16 0 -8
-9 -35 -20 -60 -11 -24 -23 -58 -27 -74 -3 -17 -9 -30 -13 -30 -5 0 -11 -13
-15 -30 -4 -16 -10 -30 -15 -30 -5 0 -14 -17 -21 -37 -6 -21 -15 -40 -18 -43
-3 -3 -19 -32 -36 -65 -16 -33 -32 -62 -36 -65 -3 -3 -12 -22 -18 -42 -7 -21
-16 -38 -21 -38 -5 0 -11 -13 -15 -30 -4 -16 -10 -30 -14 -30 -5 0 -14 -20
-21 -44 -7 -25 -17 -47 -24 -49 -6 -3 -24 -29 -40 -58 -15 -30 -39 -72 -52
-94 -13 -22 -27 -47 -31 -55 -4 -8 -10 -17 -13 -20 -4 -3 -20 -27 -35 -55 -16
-27 -32 -52 -35 -55 -4 -3 -20 -27 -36 -55 -15 -27 -34 -56 -41 -63 -7 -7 -13
-17 -13 -21 0 -4 -9 -18 -20 -31 -11 -13 -20 -29 -20 -37 0 -7 -4 -13 -8 -13
-5 0 -14 -11 -20 -25 -7 -14 -17 -31 -22 -38 -38 -45 -50 -61 -50 -67 0 -6 -8
-17 -48 -66 -5 -5 -15 -21 -22 -34 -7 -13 -17 -29 -22 -34 -40 -49 -48 -61
-53 -77 -4 -11 -10 -19 -14 -19 -5 0 -21 -19 -37 -42 -16 -24 -33 -48 -39 -54
-5 -6 -19 -23 -30 -38 -11 -16 -24 -33 -30 -40 -5 -6 -23 -29 -40 -51 -16 -21
-36 -47 -45 -56 -138 -154 -312 -333 -485 -501 -55 -53 -160 -157 -233 -232
-74 -75 -138 -136 -143 -136 -5 0 -17 17 -27 38 -9 20 -20 39 -24 40 -5 2 -8
10 -8 17 0 13 -118 255 -130 265 -3 3 -18 31 -35 63 -16 31 -32 57 -36 57 -4
0 -9 10 -13 23 -3 13 -14 34 -26 48 -11 13 -24 29 -28 35 -5 5 -15 21 -22 34
-7 13 -17 29 -22 34 -4 6 -17 22 -28 36 -70 87 -148 175 -250 281 -47 48 -103
109 -125 134 -22 26 -60 68 -85 94 -88 93 -112 150 -75 181 8 7 15 19 15 27 0
7 6 16 14 19 8 3 20 20 27 37 7 18 19 38 26 45 7 7 13 22 13 33 0 10 4 19 9
19 4 0 14 27 21 60 7 33 16 60 21 60 4 0 11 20 15 45 3 25 9 45 13 45 4 0 13
29 20 65 7 36 17 65 21 65 5 0 11 18 15 40 4 22 11 40 16 40 5 0 9 8 9 17 0
26 63 175 84 201 12 13 49 31 90 43 70 21 174 70 230 108 85 57 194 193 211
264 4 15 11 27 15 27 4 0 13 20 20 45 7 25 16 48 21 50 4 3 10 23 14 45 4 22
10 40 14 40 4 0 13 23 20 50 7 28 17 50 21 50 5 0 11 14 15 30 4 17 10 30 14
30 5 0 14 20 21 45 7 25 16 45 21 45 5 0 11 11 15 25 3 14 10 25 14 25 5 0 14
15 20 34 6 19 14 36 18 38 4 2 25 30 48 63 56 84 116 168 128 182 6 7 22 27
36 44 34 44 90 100 194 194 111 100 123 111 182 160 93 79 332 324 402 414 9
12 37 43 60 69 24 26 58 65 75 86 42 51 347 360 368 372 15 8 93 74 157 132
14 12 48 41 76 65 27 23 73 62 101 87 28 25 73 63 100 85 27 22 59 49 70 61
12 11 46 38 76 59 30 22 56 43 57 47 2 5 24 22 48 39 24 16 52 38 62 47 18 19
87 76 156 129 22 18 47 30 54 28 8 -3 21 -5 29 -5z m-10426 -1020 c47 -19 92
-40 312 -144 65 -31 121 -56 124 -56 3 0 85 -39 182 -88 97 -48 201 -98 231
-111 30 -14 87 -39 125 -56 106 -49 381 -165 390 -165 4 0 21 -6 38 -14 18 -7
106 -39 197 -71 91 -32 258 -100 371 -151 113 -51 261 -116 330 -145 170 -71
197 -85 540 -273 127 -70 354 -224 418 -284 91 -85 96 -88 361 -217 74 -36
153 -76 175 -89 22 -12 60 -34 85 -47 25 -14 64 -37 88 -52 47 -30 66 -41 185
-106 42 -23 117 -65 165 -93 93 -54 132 -76 187 -108 19 -11 52 -30 73 -41 20
-12 62 -35 92 -52 53 -29 124 -69 165 -94 11 -7 31 -18 45 -25 14 -7 39 -22
55 -34 17 -11 37 -24 45 -27 8 -4 54 -30 101 -59 48 -29 118 -72 155 -94 80
-49 218 -167 359 -309 105 -104 254 -267 268 -291 4 -8 15 -14 22 -14 8 0 15
-4 15 -9 0 -6 10 -21 23 -35 12 -13 31 -36 41 -51 11 -14 27 -35 36 -45 9 -10
25 -31 36 -45 32 -45 155 -176 220 -236 42 -38 97 -99 129 -143 11 -15 28 -37
38 -49 10 -11 20 -31 23 -44 4 -13 9 -23 13 -23 3 0 20 -26 36 -58 17 -31 33
-58 37 -60 4 -2 12 -19 18 -38 6 -19 15 -34 20 -34 5 0 11 -13 15 -30 4 -16
10 -30 15 -30 4 0 13 -22 20 -50 7 -27 16 -50 20 -50 5 0 11 -13 15 -30 4 -16
10 -30 14 -30 4 0 13 -16 20 -35 7 -19 17 -35 22 -35 5 0 9 -4 9 -10 0 -8 129
-196 160 -233 11 -12 198 -266 222 -300 7 -10 21 -28 31 -39 9 -12 17 -24 17
-28 0 -4 9 -17 20 -30 11 -13 20 -29 20 -37 0 -7 4 -13 9 -13 5 0 15 -16 22
-35 7 -19 16 -35 20 -35 4 0 10 -13 14 -30 4 -16 10 -30 14 -30 4 0 13 -22 20
-50 7 -27 16 -50 21 -50 4 0 13 -27 20 -60 7 -33 16 -63 21 -65 4 -3 11 -31
15 -63 4 -31 10 -59 14 -62 16 -11 30 -261 30 -544 0 -170 4 -304 10 -314 5
-9 12 -92 16 -184 3 -93 10 -168 14 -168 10 0 24 -301 16 -335 -4 -14 -12 -25
-19 -25 -13 0 -93 55 -112 76 -5 6 -46 38 -90 70 -44 32 -87 64 -95 71 -8 7
-29 23 -46 35 -77 56 -189 142 -194 149 -7 10 -129 99 -136 99 -3 0 -47 29
-99 65 -51 36 -96 65 -99 65 -4 0 -34 20 -68 45 -34 25 -66 45 -70 45 -5 0
-33 18 -63 40 -30 22 -57 40 -61 40 -3 0 -35 20 -71 45 -35 25 -66 45 -69 45
-3 0 -31 17 -62 37 -81 54 -91 60 -145 91 -27 15 -119 73 -205 130 -86 57
-167 109 -178 115 -12 7 -53 31 -90 55 -38 23 -78 48 -89 55 -11 6 -38 24 -60
38 -22 14 -44 28 -50 30 -5 2 -36 20 -68 39 -32 19 -73 44 -91 55 -18 11 -62
38 -97 59 -35 21 -89 52 -119 69 -30 17 -67 38 -82 49 -31 21 -573 295 -697
352 -47 21 -114 52 -150 68 -185 82 -236 113 -316 190 -99 95 -182 153 -305
213 -144 71 -165 78 -350 134 -183 56 -252 82 -355 134 -221 112 -329 179
-438 270 -54 45 -196 186 -237 236 -19 23 -43 51 -52 61 -9 10 -22 28 -28 41
-14 26 -59 76 -114 127 -62 58 -229 227 -246 248 -38 49 -146 180 -155 190 -6
7 -22 25 -36 40 -43 51 -122 115 -191 155 -37 22 -71 45 -75 52 -4 7 -25 25
-46 40 -60 45 -131 121 -199 212 -20 28 -41 55 -45 60 -5 6 -14 21 -21 35 -21
41 -47 85 -53 90 -3 3 -19 33 -35 68 -15 34 -31 62 -35 62 -4 0 -12 23 -19 50
-7 28 -16 50 -20 50 -4 0 -11 12 -15 27 -3 15 -15 46 -26 70 -10 23 -19 47
-19 52 0 6 -4 11 -8 11 -5 0 -14 23 -21 50 -7 28 -17 50 -21 50 -5 0 -12 16
-16 35 -3 19 -10 35 -15 35 -5 0 -9 6 -9 12 0 14 -80 175 -111 223 -33 52 -42
78 -47 138 -2 31 -8 57 -12 57 -4 0 -9 59 -12 131 -2 77 -8 133 -14 137 -6 4
-17 31 -24 60 -6 28 -16 52 -20 52 -5 0 -11 18 -15 40 -4 22 -10 40 -15 40 -4
0 -11 15 -14 33 -3 17 -12 44 -20 59 -8 15 -17 40 -21 57 -4 17 -10 31 -15 31
-4 0 -10 13 -13 30 -9 42 -83 209 -99 220 -3 3 -12 27 -18 53 -7 26 -16 47
-20 47 -4 0 -11 16 -14 35 -4 19 -10 35 -15 35 -4 0 -14 25 -21 55 -7 30 -17
55 -21 55 -5 0 -11 16 -15 35 -3 19 -10 35 -14 35 -4 0 -13 27 -20 60 -7 33
-16 63 -21 65 -4 3 -11 30 -14 60 -4 30 -11 55 -15 55 -4 0 -11 28 -14 63 -4
34 -10 74 -13 90 l-6 27 89 -41 c49 -22 110 -49 135 -59z m13222 -2048 c-6 -4
-15 -20 -18 -35 -4 -15 -11 -27 -15 -27 -4 0 -13 -20 -20 -45 -7 -25 -17 -45
-21 -45 -5 0 -9 -5 -9 -11 0 -12 -51 -122 -60 -129 -3 -3 -12 -21 -20 -40 -8
-19 -20 -41 -27 -48 -7 -7 -13 -20 -13 -28 0 -8 -4 -14 -9 -14 -5 0 -15 -15
-21 -34 -6 -19 -14 -36 -18 -38 -10 -4 -83 -104 -112 -153 -13 -22 -29 -45
-35 -51 -5 -7 -19 -24 -29 -39 -11 -14 -28 -36 -38 -47 -10 -12 -18 -24 -18
-27 0 -3 -15 -23 -33 -43 -17 -20 -50 -58 -72 -84 -54 -64 -290 -300 -350
-349 -26 -22 -57 -49 -69 -60 -49 -47 -377 -285 -441 -320 -38 -21 -131 -73
-205 -115 -74 -43 -156 -89 -183 -104 -26 -14 -66 -37 -90 -50 -23 -13 -76
-41 -117 -63 -41 -22 -96 -52 -122 -66 -111 -62 -149 -83 -258 -139 -119 -62
-203 -108 -255 -138 -68 -40 -223 -125 -300 -165 -27 -14 -63 -33 -80 -43 -63
-36 -187 -108 -214 -122 -15 -9 -57 -37 -94 -63 -36 -26 -70 -47 -75 -47 -5 0
-20 -10 -33 -23 -13 -13 -51 -43 -84 -67 -54 -40 -204 -184 -280 -271 -28 -31
-127 -162 -165 -220 -15 -21 -55 -73 -75 -95 -5 -7 -26 -31 -45 -55 -19 -24
-46 -55 -59 -69 -13 -14 -44 -49 -70 -79 -25 -30 -63 -73 -83 -95 -21 -23 -38
-44 -38 -48 0 -4 -8 -15 -18 -25 -23 -23 -108 -135 -147 -193 -33 -49 -36 -54
-65 -89 -11 -13 -20 -27 -20 -31 0 -4 -8 -16 -17 -28 -10 -11 -25 -30 -33 -42
-8 -13 -25 -35 -37 -49 -37 -43 -40 -46 -52 -69 -6 -12 -24 -35 -39 -50 -15
-16 -38 -43 -51 -60 -13 -18 -28 -32 -32 -32 -5 0 -9 60 -9 133 -1 72 -8 184
-16 247 -8 63 -19 151 -25 195 -5 44 -16 98 -24 120 -7 22 -17 82 -21 133 -3
50 -10 92 -14 92 -4 0 -11 48 -15 108 -4 59 -11 110 -16 113 -15 9 -16 242 -1
246 6 3 12 10 12 17 0 18 27 51 114 134 62 60 723 714 829 820 32 32 32 32
198 197 130 129 243 259 299 345 15 24 152 164 207 212 50 45 448 324 531 373
9 5 61 40 114 77 53 38 100 68 103 68 3 0 51 32 105 70 54 39 102 70 106 70 3
0 27 15 53 33 25 19 69 47 96 63 28 15 64 36 80 46 17 10 84 45 150 78 158 80
266 108 625 165 88 14 458 99 1270 294 134 32 151 35 133 23z m-15854 -846
c35 -14 68 -30 75 -35 32 -27 165 -84 252 -108 l99 -28 465 3 c277 1 503 -2
560 -8 101 -11 693 -108 1020 -166 379 -68 638 -124 681 -147 23 -12 65 -47
95 -77 120 -125 154 -162 161 -175 5 -7 31 -37 58 -67 28 -30 81 -90 120 -134
68 -77 453 -465 510 -514 16 -14 42 -35 58 -47 16 -12 46 -37 66 -56 37 -34
323 -227 338 -227 4 0 26 -14 47 -30 22 -17 43 -30 46 -30 19 0 204 -132 226
-161 25 -34 25 -35 19 -174 -3 -77 -10 -149 -15 -160 -5 -11 -14 -102 -21
-202 -7 -101 -16 -183 -21 -183 -4 0 -8 -17 -8 -39 0 -76 -9 -95 -61 -131
l-50 -34 -122 17 c-879 126 -1136 191 -1359 345 -26 18 -49 32 -52 32 -3 0
-74 49 -158 109 -124 88 -366 241 -383 241 -2 0 -40 23 -85 50 -45 28 -84 50
-87 50 -3 0 -19 10 -36 22 -18 13 -44 30 -60 38 -15 8 -105 60 -200 115 -242
139 -418 231 -617 321 -47 21 -87 41 -90 45 -3 3 -25 19 -50 34 -51 32 -143
100 -176 130 -12 11 -56 52 -98 90 -42 39 -114 106 -160 150 -45 44 -102 96
-125 115 -24 19 -59 49 -80 65 -20 17 -69 55 -108 84 -85 62 -160 135 -260
252 -288 339 -503 485 -828 559 l-100 23 65 19 c217 64 331 70 449 24z m14950
-2257 c-5 -35 -14 -71 -18 -79 -5 -9 -12 -35 -16 -58 -4 -23 -10 -42 -15 -42
-4 0 -14 -31 -21 -70 -7 -38 -15 -70 -19 -70 -4 0 -13 -29 -20 -65 -7 -36 -16
-65 -20 -65 -4 0 -11 -20 -14 -45 -4 -25 -11 -45 -15 -45 -5 0 -14 -27 -21
-60 -7 -33 -16 -60 -21 -60 -4 0 -11 -16 -15 -35 -3 -19 -10 -35 -14 -35 -4 0
-11 -12 -15 -27 -3 -15 -24 -64 -46 -110 -21 -45 -39 -89 -39 -97 0 -9 -4 -16
-10 -16 -5 0 -12 -11 -16 -25 -3 -14 -9 -25 -13 -25 -5 0 -14 -18 -21 -40 -7
-22 -17 -40 -22 -40 -4 0 -8 -6 -8 -14 0 -8 -6 -21 -13 -28 -7 -7 -19 -29 -27
-48 -8 -19 -17 -37 -20 -40 -3 -3 -16 -25 -29 -50 -13 -25 -38 -67 -56 -95
-30 -46 -65 -117 -101 -205 -8 -19 -19 -42 -24 -51 -4 -9 -14 -41 -21 -72 -8
-32 -17 -57 -20 -57 -4 0 -10 -17 -14 -37 -4 -21 -10 -42 -15 -48 -4 -5 -13
-34 -20 -62 -6 -29 -16 -53 -21 -53 -5 0 -9 -8 -9 -17 0 -10 -12 -40 -25 -68
-14 -27 -25 -56 -25 -62 0 -7 -4 -13 -9 -13 -5 0 -14 -12 -20 -27 -20 -50 -38
-78 -104 -164 -101 -132 -231 -255 -382 -360 -44 -31 -85 -58 -91 -60 -6 -2
-66 -43 -135 -92 -68 -48 -198 -136 -289 -195 -91 -59 -192 -125 -225 -147
-33 -22 -69 -45 -80 -51 -11 -6 -74 -43 -140 -81 -142 -82 -276 -151 -365
-188 -49 -20 -618 -219 -722 -252 -13 -4 -15 0 -11 19 3 12 9 28 13 33 4 6 13
37 20 69 7 33 16 67 20 75 5 9 20 39 34 67 14 29 39 67 56 85 17 19 33 44 36
57 4 12 10 22 14 22 4 0 14 15 21 33 7 17 19 38 26 45 7 7 13 20 13 28 0 8 4
14 9 14 4 0 14 20 21 45 7 25 16 45 21 45 4 0 11 16 15 35 3 19 10 35 14 35 5
0 14 25 21 55 7 30 16 55 20 55 4 0 11 20 15 45 3 25 10 45 14 45 4 0 13 33
20 73 7 39 16 77 20 82 5 6 11 36 15 68 4 31 11 57 15 57 4 0 13 38 20 85 7
47 16 85 20 85 4 0 10 20 13 45 4 24 11 53 16 62 20 37 49 110 61 151 7 23 17
42 22 42 4 0 8 6 8 13 0 13 116 243 130 257 3 3 19 25 35 50 16 25 32 47 35
50 3 3 19 25 35 49 17 25 41 57 55 72 14 15 52 57 85 94 33 37 68 75 78 84 10
9 44 41 76 71 31 30 75 68 97 85 21 16 44 35 49 41 6 7 73 58 150 113 77 56
157 115 178 132 21 17 58 42 82 55 42 22 262 163 410 264 39 26 75 49 80 51 6
2 42 25 80 51 169 115 235 158 241 158 3 0 37 23 75 50 38 28 71 50 74 50 2 0
75 47 161 105 86 58 159 105 162 105 2 0 33 20 69 45 64 45 81 51 258 89 81
18 109 23 112 21 2 -1 -2 -30 -8 -66z m-15574 -364 c83 -9 123 -20 207 -60
261 -122 575 -167 928 -135 140 14 452 13 570 0 227 -25 490 -81 683 -144 113
-38 188 -49 432 -66 168 -12 439 -51 560 -81 139 -35 359 -101 380 -113 56
-35 439 -149 658 -195 171 -37 378 -68 507 -76 145 -9 278 -25 355 -42 153
-33 340 -111 430 -180 70 -53 213 -202 236 -245 6 -12 16 -27 21 -32 41 -50
48 -60 48 -70 0 -8 87 -144 123 -191 4 -5 27 -37 52 -70 24 -33 48 -64 52 -70
5 -5 22 -30 38 -55 17 -24 37 -52 45 -61 8 -8 22 -26 30 -38 8 -13 22 -31 30
-41 27 -32 55 -68 70 -91 8 -12 24 -32 35 -45 11 -12 27 -32 35 -45 8 -12 26
-36 40 -53 14 -17 28 -35 33 -41 10 -13 83 -113 105 -144 9 -13 35 -45 57 -71
22 -26 47 -57 55 -69 8 -13 24 -33 35 -45 11 -13 27 -33 35 -46 8 -12 22 -30
30 -40 28 -33 55 -68 70 -91 8 -12 22 -30 30 -38 8 -9 28 -37 45 -61 16 -25
34 -48 40 -52 26 -19 -30 -20 -317 -4 -1103 60 -1668 130 -2018 251 -190 66
-318 112 -345 125 -11 5 -81 32 -155 60 -74 28 -144 55 -155 60 -11 5 -67 28
-125 50 -118 46 -110 43 -245 103 -55 25 -170 75 -255 111 -196 85 -240 107
-320 166 -61 44 -81 60 -169 136 -200 172 -462 278 -852 344 -68 12 -157 28
-198 36 -74 15 -274 90 -361 134 -64 33 -289 168 -326 196 -17 13 -34 24 -39
24 -4 0 -35 20 -69 43 -122 87 -166 117 -171 117 -8 0 -219 154 -242 177 -11
10 -47 43 -82 73 -34 30 -86 78 -115 105 -29 28 -101 91 -160 140 -59 50 -118
99 -130 110 -169 152 -319 294 -356 340 -14 16 -13 17 15 12 17 -3 57 -9 90
-12z"></path>
<path d="M11380 5804 c-19 -2 -93 -9 -165 -15 -481 -40 -991 -151 -1560 -340
-733 -244 -1278 -300 -1840 -188 -176 35 -402 104 -550 169 -27 12 -104 42
-170 66 -66 25 -129 49 -140 54 -11 5 -65 23 -120 40 -55 18 -111 36 -124 41
-36 15 -260 67 -376 89 -305 56 -693 59 -995 9 -171 -29 -511 -132 -602 -182
-53 -29 -72 -74 -64 -151 3 -34 11 -62 16 -64 6 -2 10 -10 10 -18 0 -8 5 -20
10 -27 42 -50 60 -73 60 -78 0 -3 19 -13 42 -24 44 -19 93 -19 423 5 175 12
502 12 650 -1 307 -26 575 -97 815 -215 540 -265 1196 -390 1854 -355 264 14
561 53 751 96 33 8 121 28 195 45 198 46 402 108 830 255 206 71 626 165 906
205 453 63 694 53 1519 -65 171 -24 402 -54 515 -65 355 -36 415 -47 712 -133
349 -101 500 -121 867 -115 223 4 273 8 308 22 23 10 45 26 48 37 4 10 10 19
15 19 12 0 30 66 30 108 0 17 5 32 10 32 6 0 10 23 10 50 0 28 -4 50 -10 50
-5 0 -10 13 -10 29 0 46 -19 86 -48 103 -37 22 -158 43 -387 68 -336 37 -409
51 -645 123 -314 98 -293 93 -755 167 -190 30 -648 90 -880 115 -77 8 -183 20
-235 26 -90 11 -844 21 -920 13z"></path>
<path d="M5386 4365 c-52 -55 -48 -75 27 -128 34 -25 82 -64 107 -87 65 -61
244 -186 322 -226 57 -29 169 -68 448 -159 182 -59 1308 -341 1475 -369 289
-50 775 -70 1135 -47 493 31 1275 127 2095 256 989 156 1551 188 2130 119 72
-8 155 -12 185 -9 366 41 471 59 497 86 40 40 46 53 50 112 5 62 5 62 -38 108
-58 62 -178 146 -231 164 -61 20 -344 65 -628 99 -285 34 -413 41 -755 41
-398 -1 -494 -9 -935 -80 -151 -24 -311 -49 -355 -55 -44 -6 -89 -15 -100 -20
-11 -4 -76 -15 -145 -24 -289 -36 -658 -80 -975 -116 -99 -11 -315 -36 -480
-55 -556 -64 -726 -74 -990 -56 -214 14 -310 29 -595 91 -149 33 -276 57 -540
105 -135 25 -259 49 -277 55 -29 10 -192 41 -633 121 -216 39 -585 96 -682
105 l-77 7 -35 -38z"></path>
<path d="M6610 2829 c-222 -32 -277 -48 -295 -87 -5 -12 -13 -22 -17 -22 -5 0
-8 -18 -8 -40 0 -22 4 -40 9 -40 5 0 12 -8 15 -18 7 -20 90 -108 130 -137 16
-11 34 -25 41 -32 29 -28 229 -114 330 -142 227 -64 438 -96 870 -135 584 -53
1006 -76 1920 -106 336 -11 752 -25 925 -31 421 -15 617 -6 1300 56 512 48
966 114 1235 181 204 51 398 137 489 218 l50 44 -39 78 c-22 44 -43 81 -47 82
-4 2 -8 9 -8 16 0 18 -80 91 -120 108 -124 56 -252 53 -582 -12 -621 -123
-790 -143 -1503 -171 -396 -15 -1254 -16 -1525 -1 -124 7 -443 19 -710 27
-718 23 -911 37 -1305 100 -497 80 -554 87 -750 90 -170 4 -212 1 -405 -26z"></path>
<path d="M7303 1203 c-62 -18 -131 -79 -139 -123 -4 -16 -10 -30 -15 -30 -5 0
-9 -18 -9 -40 0 -22 3 -40 8 -40 4 0 13 -22 19 -50 13 -53 18 -62 75 -119 89
-89 486 -204 848 -245 457 -53 993 -45 2019 29 190 14 390 25 445 25 343 0
1463 125 1709 191 53 14 486 158 592 197 l80 30 3 54 c2 45 -1 59 -20 81 l-24
27 -749 0 c-413 0 -869 -5 -1015 -10 -146 -5 -445 -16 -665 -25 -604 -23
-1706 -37 -1990 -25 -137 6 -326 21 -440 35 -454 58 -633 67 -732 38z"></path>
</g>
</svg><style>@media (prefers-color-scheme: light) { :root { filter: none; } }
@media (prefers-color-scheme: dark) { :root { filter: none; } }
</style></svg>