<svg xmlns="http://www.w3.org/2000/svg" width="2000" height="2000" viewBox="0 0 2000 2000" version="1.1"><path d="M 855.760 1.558 C 845.766 3.980, 836 10.366, 836 14.478 C 836 15.224, 835.438 16.021, 834.750 16.251 C 833.169 16.778, 833.180 39.873, 834.762 40.857 C 835.331 41.211, 836.379 47.462, 837.091 54.750 C 837.803 62.038, 838.703 68, 839.092 68 C 839.481 68, 840.123 73.625, 840.520 80.500 C 840.916 87.375, 841.563 93, 841.956 93 C 842.350 93, 843.269 102.900, 844 115 C 844.731 127.100, 845.628 137, 845.994 137 C 846.680 137, 849.031 175.705, 849.011 186.691 C 849.005 190.096, 849.450 193.160, 850 193.500 C 851.276 194.289, 851.353 234.360, 850.082 236.764 C 849.113 238.599, 846.957 274.772, 846.984 288.750 C 846.993 293.594, 846.587 297, 846 297 C 845.450 297, 845 299.025, 845 301.500 C 845 303.975, 845.450 306, 846 306 C 846.631 306, 847 312.833, 847 324.500 C 847 336.167, 846.631 343, 846 343 C 845.420 343, 845 346.239, 845 350.716 C 845 361.222, 842.911 386.383, 841.987 387 C 841.576 387.275, 840.913 391.212, 840.515 395.750 C 840.117 400.288, 839.454 404, 839.041 404 C 838.629 404, 837.731 408.725, 837.047 414.500 C 836.362 420.275, 835.449 425, 835.016 425 C 834.584 425, 833.921 427.475, 833.543 430.500 C 833.165 433.525, 832.526 436, 832.123 436 C 831.720 436, 830.823 439.375, 830.130 443.500 C 829.437 447.625, 828.491 451, 828.029 451 C 827.566 451, 826.878 453.250, 826.500 456 C 826.122 458.750, 825.514 461, 825.150 461 C 824.785 461, 823.892 462.912, 823.165 465.250 C 822.438 467.587, 820.911 471.013, 819.771 472.861 C 817.888 475.917, 817.358 476.177, 813.955 475.721 C 811.896 475.445, 798.749 469.544, 784.740 462.609 C 770.732 455.674, 758.993 450, 758.654 450 C 758.119 450, 751.920 447.199, 736.500 439.989 C 728.601 436.296, 721.163 433.113, 708.436 427.980 C 693.790 422.073, 692.210 421.401, 682.500 416.961 C 668.483 410.550, 593.314 380, 591.559 380 C 591.143 380, 589.384 379.363, 587.651 378.585 C 585.918 377.807, 575.950 373.497, 565.500 369.007 C 543.731 359.654, 510.974 343.754, 506.406 340.324 C 504.704 339.046, 502.990 338, 502.597 338 C 501.950 338, 495.364 333.586, 471.500 317.158 C 467.100 314.129, 455.524 305.896, 445.775 298.862 C 420.043 280.295, 414.154 277.939, 391.696 277.222 C 373.900 276.654, 367.687 277.714, 356.200 283.278 C 347.442 287.520, 342.349 292.309, 341.318 297.271 C 341.001 298.795, 340.350 300.284, 339.871 300.580 C 338.737 301.280, 338.735 312.718, 339.868 313.419 C 340.346 313.714, 341.050 316.319, 341.433 319.209 C 341.817 322.098, 342.463 324.696, 342.870 324.981 C 343.277 325.267, 344.334 328.650, 345.219 332.500 C 348.782 347.998, 349.297 349.693, 352.117 355.236 C 352.603 356.191, 353 357.879, 353 358.986 C 353 360.094, 353.400 361, 353.889 361 C 354.377 361, 355.091 362.672, 355.474 364.715 C 355.858 366.759, 356.769 369.587, 357.500 371 C 358.231 372.413, 359.142 375.241, 359.526 377.285 C 359.909 379.328, 360.551 381, 360.952 381 C 361.353 381, 362.234 383.467, 362.909 386.483 C 363.584 389.499, 364.516 392.201, 364.981 392.488 C 365.446 392.775, 366.130 394.808, 366.501 397.005 C 366.872 399.202, 367.554 401, 368.016 401 C 368.478 401, 369.410 403.475, 370.087 406.500 C 370.764 409.525, 371.647 412, 372.048 412 C 372.449 412, 373.093 413.688, 373.478 415.750 C 373.864 417.813, 374.530 419.950, 374.959 420.500 C 375.387 421.050, 376.292 423.863, 376.969 426.750 C 377.646 429.638, 378.565 432, 379.012 432 C 379.459 432, 380.128 433.800, 380.500 436 C 380.872 438.200, 381.515 440, 381.929 440 C 382.343 440, 383.234 442.467, 383.909 445.483 C 384.584 448.499, 385.504 451.194, 385.955 451.472 C 386.405 451.750, 387.070 453.558, 387.432 455.489 C 387.794 457.420, 388.459 459, 388.909 459 C 389.359 459, 390.300 461.700, 391 465 C 391.700 468.300, 392.622 471, 393.049 471 C 393.475 471, 394.128 472.800, 394.500 475 C 394.872 477.200, 395.525 479, 395.951 479 C 396.378 479, 397.300 481.700, 398 485 C 398.700 488.300, 399.590 491, 399.978 491 C 400.365 491, 401.234 493.467, 401.909 496.483 C 402.584 499.499, 403.504 502.194, 403.955 502.472 C 404.405 502.750, 405.066 504.539, 405.424 506.447 C 405.782 508.355, 406.730 511.172, 407.531 512.708 C 408.332 514.243, 408.993 516.175, 409 517 C 409.007 517.825, 409.668 519.757, 410.469 521.292 C 411.270 522.828, 412.217 525.640, 412.574 527.542 C 412.931 529.444, 413.561 531, 413.975 531 C 414.388 531, 415.300 533.700, 416 537 C 416.700 540.300, 417.622 543, 418.049 543 C 418.475 543, 419.128 544.800, 419.500 547 C 419.872 549.200, 420.515 551, 420.929 551 C 421.343 551, 422.234 553.467, 422.909 556.483 C 423.584 559.499, 424.504 562.194, 424.955 562.472 C 425.405 562.750, 426.070 564.558, 426.432 566.489 C 426.794 568.420, 427.459 570, 427.909 570 C 428.359 570, 429.300 572.700, 430 576 C 430.700 579.300, 431.622 582, 432.049 582 C 432.475 582, 433.128 583.800, 433.500 586 C 433.872 588.200, 434.536 590, 434.977 590 C 435.417 590, 436.093 591.688, 436.479 593.750 C 437.112 597.131, 438.152 599.852, 442.495 609.500 C 443.238 611.150, 444.154 613.737, 444.531 615.250 C 444.908 616.763, 445.618 618, 446.108 618 C 446.599 618, 447.014 618.563, 447.031 619.250 C 447.048 619.938, 448.169 622.750, 449.522 625.500 C 450.875 628.250, 451.986 631.063, 451.991 631.750 C 451.996 632.438, 452.337 633.006, 452.750 633.013 C 453.163 633.020, 454.850 635.945, 456.500 639.513 C 458.150 643.080, 459.837 645.999, 460.250 645.999 C 460.663 646, 461 646.569, 461 647.265 C 461 647.960, 461.927 650.259, 463.059 652.372 C 464.192 654.485, 464.936 656.397, 464.713 656.620 C 464.490 656.843, 457.151 655.652, 448.404 653.974 C 423.613 649.217, 404.385 646.261, 380.500 643.533 C 368.400 642.151, 354.675 640.524, 350 639.917 C 345.325 639.310, 326.200 638.439, 307.500 637.982 C 267.407 637.001, 262.900 636.252, 243.819 627.406 C 237.044 624.265, 229.925 621.280, 228 620.774 C 217.964 618.135, 209.120 617.100, 196.203 617.053 C 175.796 616.978, 164.998 619.078, 108.622 634.087 L 88.743 639.379 82.927 644.939 C 72.545 654.866, 68.978 661.811, 68.247 673.518 C 67.734 681.752, 69.315 692, 71.100 692 C 71.595 692, 72 692.621, 72 693.379 C 72 695.791, 85.270 708.576, 91.500 712.167 C 94.800 714.069, 101.775 717.315, 107 719.380 C 112.225 721.446, 117.349 723.597, 118.387 724.162 C 124.665 727.576, 127.736 729.451, 130.918 731.814 C 134.661 734.594, 142.074 742.042, 145.500 746.467 C 146.600 747.888, 147.956 749.601, 148.513 750.275 C 151.081 753.379, 157.649 761.992, 159 764.026 C 159.825 765.269, 161.400 767.312, 162.500 768.566 C 163.600 769.820, 165.400 772.080, 166.500 773.589 C 169.163 777.241, 179.480 787.524, 185.473 792.500 C 188.122 794.700, 191.462 797.563, 192.895 798.862 C 196.336 801.981, 223.872 821.701, 231.500 826.509 C 237.261 830.140, 250.420 840.171, 252.500 842.517 C 253.050 843.137, 257.100 846.262, 261.500 849.462 C 265.900 852.661, 269.950 855.821, 270.500 856.485 C 271.050 857.148, 279.099 863.167, 288.386 869.861 C 304.857 881.730, 320.526 890.377, 342.250 899.584 C 345.962 901.158, 349 902.724, 349 903.065 C 349 904.888, 288.632 905.483, 254 904.003 C 228.708 902.921, 218.974 901.369, 181.449 892.437 C 146.476 884.111, 135.863 882.618, 116.500 883.298 C 101.046 883.841, 90.330 886.066, 79.575 890.966 C 70.815 894.956, 57.941 905.865, 54.817 911.943 C 54.094 913.349, 53.277 914.725, 53.001 915 C 52.724 915.275, 51.374 917.750, 49.999 920.500 C 47.746 925.009, 47.502 926.679, 47.520 937.500 C 47.540 949.701, 48.386 952.893, 53.466 959.932 C 56.411 964.013, 106.080 1012.222, 113.977 1018.664 C 115.889 1020.224, 119.126 1023.075, 121.170 1025 C 123.214 1026.925, 126.736 1030.075, 128.996 1032 C 131.256 1033.925, 135.273 1037.525, 137.923 1040 C 142.103 1043.905, 149.667 1050.649, 157.548 1057.500 C 164.236 1063.314, 172.637 1070.786, 174.879 1072.915 C 176.277 1074.244, 184.189 1079.213, 192.461 1083.959 C 206.212 1091.848, 223.018 1103.223, 223.833 1105.194 C 224.017 1105.637, 224.566 1106, 225.054 1106 C 225.542 1106, 227.867 1107.284, 230.221 1108.853 C 243.461 1117.678, 246.695 1119.612, 254.500 1123.365 C 281.520 1136.357, 296.930 1140.962, 326.652 1144.923 C 341.635 1146.920, 351.747 1149.903, 359.678 1154.664 C 372.728 1162.500, 376.102 1164.823, 382.386 1170.304 C 389.750 1176.726, 403.615 1186.702, 408 1188.733 C 419.531 1194.073, 436.754 1200.690, 463.500 1210.055 C 472.850 1213.329, 481.400 1216.434, 482.500 1216.954 C 483.600 1217.475, 488.374 1219.469, 493.108 1221.387 C 497.843 1223.304, 505.268 1226.517, 509.608 1228.526 C 513.949 1230.536, 522.900 1234.408, 529.500 1237.131 C 536.100 1239.855, 542.400 1242.500, 543.500 1243.011 C 544.600 1243.521, 551.800 1246.263, 559.500 1249.103 C 628.409 1274.526, 696.409 1282.954, 857 1285.975 C 898.907 1286.764, 906.678 1287.164, 923 1289.376 C 940.185 1291.705, 975.548 1297.484, 979.021 1298.531 C 983.248 1299.805, 1011.153 1303.994, 1015.500 1304.008 C 1018.372 1304.017, 1023.798 1302.881, 1028.250 1301.339 C 1036.662 1298.425, 1037.567 1297.112, 1034 1293 C 1032.900 1291.732, 1032 1290.212, 1032 1289.622 C 1032 1288.119, 1025.137 1282.169, 1021.293 1280.339 C 1019.529 1279.499, 1017.054 1277.833, 1015.793 1276.635 C 1014.532 1275.438, 1011.475 1272.835, 1009 1270.851 C 1001.879 1265.143, 997 1260.248, 997 1258.810 C 997 1256.247, 987.072 1248.705, 969 1237.539 C 961.826 1233.106, 954.381 1228.003, 952.414 1226.171 C 951.298 1225.131, 948.160 1222.584, 945.442 1220.511 C 938.438 1215.170, 914.620 1190.757, 904.500 1178.546 C 895.766 1168.007, 896.316 1168.718, 892.500 1163.020 C 889.695 1158.831, 888.887 1157.751, 885 1152.997 C 884.175 1151.988, 882.628 1149.972, 881.562 1148.518 C 880.497 1147.063, 878.809 1144.933, 877.812 1143.784 C 876.816 1142.634, 875.990 1141.425, 875.977 1141.097 C 875.964 1140.769, 874.389 1138.763, 872.477 1136.640 C 870.565 1134.516, 869 1132.479, 869 1132.112 C 869 1131.746, 867.763 1130.082, 866.250 1128.415 C 864.737 1126.748, 862.150 1123.385, 860.500 1120.942 C 858.850 1118.499, 857.050 1116.012, 856.500 1115.415 C 855.950 1114.818, 854.600 1113.094, 853.500 1111.584 C 852.400 1110.073, 850.712 1107.905, 849.750 1106.766 C 848.787 1105.626, 848 1104.382, 848 1104 C 848 1103.618, 847.213 1102.374, 846.250 1101.234 C 845.288 1100.095, 843.600 1097.927, 842.500 1096.416 C 841.400 1094.906, 840.050 1093.182, 839.500 1092.585 C 838.950 1091.988, 837.150 1089.475, 835.500 1087 C 833.850 1084.525, 832.150 1082.050, 831.722 1081.500 C 828.954 1077.941, 822.254 1068.881, 821 1067.002 C 820.175 1065.766, 819.050 1064.248, 818.500 1063.627 C 817.060 1062.004, 812 1051.512, 812 1050.150 C 812 1049.518, 811.582 1049, 811.072 1049 C 810.561 1049, 809.590 1046.525, 808.913 1043.500 C 808.236 1040.475, 807.324 1038, 806.886 1038 C 806.449 1038, 805.795 1036.425, 805.434 1034.500 C 805.073 1032.575, 804.439 1031, 804.025 1031 C 803.612 1031, 802.700 1028.300, 802 1025 C 801.300 1021.700, 800.387 1019, 799.972 1019 C 799.557 1019, 798.915 1017.798, 798.546 1016.329 C 798.178 1014.860, 797.004 1012.549, 795.938 1011.194 C 794.872 1009.839, 794 1008.116, 794 1007.365 C 794 1006.614, 793.663 1005.998, 793.250 1005.997 C 792.837 1005.995, 791.150 1003.407, 789.500 1000.247 C 787.850 997.086, 786.223 994.275, 785.885 994 C 785.546 993.725, 784.954 992.490, 784.569 991.256 C 784.184 990.022, 783.335 988.447, 782.682 987.756 C 781.126 986.111, 776 975.802, 776 974.319 C 776 973.685, 775.528 973.009, 774.952 972.817 C 774.375 972.625, 773.637 969.888, 773.312 966.734 C 772.987 963.580, 772.333 961, 771.860 961 C 771.387 961, 771 957.625, 771 953.500 C 771 949.375, 771.382 946, 771.849 946 C 772.316 946, 772.963 940.047, 773.286 932.771 C 773.639 924.833, 774.300 919.400, 774.937 919.188 C 775.522 918.993, 776 918.196, 776 917.417 C 776 916.638, 776.179 916, 776.398 916 C 776.617 916, 780.780 917.986, 785.648 920.414 C 795.040 925.097, 803.393 928.948, 814 933.487 C 824.111 937.813, 832.187 941.600, 849.500 950.135 C 864.154 957.360, 870.915 960.919, 881.250 966.848 C 883.313 968.032, 886.575 969.900, 888.500 971 C 895.159 974.805, 898.539 976.766, 907.500 982.023 C 912.450 984.927, 917.625 987.952, 919 988.746 C 920.375 989.539, 923.300 991.254, 925.500 992.556 C 927.700 993.859, 931.214 995.865, 933.308 997.013 C 935.403 998.161, 942.752 1002.678, 949.640 1007.050 C 956.528 1011.423, 962.297 1015, 962.461 1015 C 962.984 1015, 973.407 1021.422, 976.663 1023.750 C 978.393 1024.987, 980.108 1026, 980.474 1026 C 980.840 1026, 983.102 1027.350, 985.500 1029 C 987.898 1030.650, 990.116 1032, 990.428 1032 C 990.740 1032, 993.188 1033.575, 995.867 1035.500 C 998.547 1037.425, 1001.054 1039, 1001.439 1039 C 1001.824 1039, 1004.102 1040.350, 1006.500 1042 C 1008.898 1043.650, 1011.116 1045, 1011.428 1045 C 1011.740 1045, 1014.188 1046.575, 1016.867 1048.500 C 1019.547 1050.425, 1022.075 1052, 1022.485 1052 C 1022.896 1052, 1025.378 1053.575, 1028 1055.500 C 1030.622 1057.425, 1033.025 1059, 1033.338 1059 C 1033.652 1059, 1038.317 1061.860, 1043.704 1065.357 C 1049.092 1068.853, 1055.919 1072.939, 1058.876 1074.437 C 1061.833 1075.936, 1065.237 1078.138, 1066.440 1079.331 C 1067.643 1080.524, 1071.901 1084.394, 1075.902 1087.931 C 1079.903 1091.468, 1084.416 1095.520, 1085.931 1096.936 C 1087.446 1098.351, 1091.282 1101.757, 1094.456 1104.504 C 1097.629 1107.252, 1101.637 1110.769, 1103.363 1112.319 C 1107.770 1116.280, 1122.610 1124.903, 1141 1134.189 C 1144.367 1135.889, 1172.687 1156.110, 1176.683 1159.667 C 1178.434 1161.225, 1180.684 1163.224, 1181.683 1164.110 C 1182.682 1164.995, 1187.550 1170.111, 1192.500 1175.479 C 1197.450 1180.847, 1202.850 1186.666, 1204.500 1188.410 C 1206.150 1190.154, 1208.850 1193.588, 1210.500 1196.041 C 1212.150 1198.493, 1214.033 1201.065, 1214.684 1201.756 C 1215.336 1202.447, 1216.154 1203.909, 1216.502 1205.006 C 1216.850 1206.103, 1217.554 1207, 1218.067 1207 C 1218.580 1207, 1219 1207.643, 1219 1208.429 C 1219 1209.214, 1219.576 1210.452, 1220.280 1211.179 C 1220.984 1211.905, 1222.895 1215.200, 1224.527 1218.500 C 1226.159 1221.800, 1228.028 1225.065, 1228.682 1225.756 C 1229.335 1226.447, 1230.179 1227.987, 1230.557 1229.179 C 1230.935 1230.371, 1231.648 1231.831, 1232.141 1232.423 C 1236.134 1237.221, 1237 1238.393, 1237 1239 C 1237 1239.382, 1237.787 1240.621, 1238.750 1241.754 C 1239.713 1242.887, 1241.175 1244.797, 1242 1246 C 1248.820 1255.942, 1253.758 1260.005, 1263.232 1263.469 C 1281.041 1269.981, 1284.285 1271.511, 1288.074 1275.188 C 1292.595 1279.575, 1293.169 1283.405, 1290.250 1289.716 C 1286.873 1297.018, 1289.734 1296.422, 1241.500 1299.871 C 1217.300 1301.601, 1188.050 1303.448, 1176.500 1303.976 C 1139.633 1305.660, 1050.840 1307.106, 972 1307.306 C 899.018 1307.491, 894.212 1307.391, 867.500 1305.120 C 841.381 1302.900, 832.783 1302.692, 739.500 1302.033 L 639.500 1301.326 615 1297.449 C 592.088 1293.823, 589.074 1293.569, 568.500 1293.536 C 548.565 1293.503, 545.702 1293.717, 538 1295.811 C 524.941 1299.362, 519.722 1302.263, 517.157 1307.400 C 514.379 1312.962, 514.309 1319.279, 516.998 1321.783 C 518.201 1322.905, 525.060 1325.142, 534.248 1327.410 C 542.637 1329.481, 553.100 1332.726, 557.500 1334.621 C 566.996 1338.711, 595.654 1347.076, 610.074 1349.967 C 634.034 1354.770, 642.836 1355.478, 673 1355.029 C 728.022 1354.211, 760.407 1354.766, 812.500 1357.420 C 905.855 1362.177, 926.603 1362.940, 995.785 1364.164 C 1113.440 1366.246, 1192.137 1362.803, 1286 1351.469 C 1326.509 1346.578, 1387.403 1336.723, 1391.051 1334.468 C 1391.508 1334.186, 1398.320 1332.140, 1406.190 1329.922 C 1414.061 1327.703, 1422.300 1325.273, 1424.500 1324.522 C 1429.604 1322.778, 1446.873 1316.202, 1449.500 1315.002 C 1450.600 1314.500, 1460.275 1310.449, 1471 1306 C 1481.725 1301.551, 1491.400 1297.505, 1492.500 1297.008 C 1493.600 1296.512, 1497.650 1294.901, 1501.500 1293.428 C 1508.943 1290.582, 1526.917 1281.875, 1538.500 1275.504 C 1546.036 1271.359, 1564.121 1259.720, 1566.219 1257.664 C 1566.923 1256.974, 1571.100 1253.770, 1575.500 1250.545 C 1579.900 1247.320, 1583.860 1244.078, 1584.300 1243.341 C 1584.740 1242.603, 1585.582 1242, 1586.173 1242 C 1586.763 1242, 1590.017 1240.023, 1593.403 1237.607 C 1596.789 1235.190, 1601.234 1232.265, 1603.280 1231.107 C 1610.461 1227.040, 1613.535 1225.262, 1617.500 1222.880 C 1619.700 1221.558, 1623.021 1219.582, 1624.880 1218.489 C 1628.311 1216.470, 1644.734 1204.981, 1648.331 1202.084 C 1661.385 1191.569, 1672.252 1180.826, 1679.772 1171 C 1682.088 1167.975, 1684.375 1165.022, 1684.856 1164.437 C 1685.336 1163.852, 1686.306 1162.277, 1687.011 1160.937 C 1687.715 1159.597, 1688.901 1158.140, 1689.646 1157.700 C 1690.391 1157.260, 1691 1156.248, 1691 1155.450 C 1691 1154.653, 1691.420 1154, 1691.933 1154 C 1692.446 1154, 1693.134 1153.153, 1693.462 1152.119 C 1693.791 1151.084, 1694.938 1149.172, 1696.011 1147.869 C 1697.085 1146.566, 1698.325 1145.050, 1698.768 1144.500 C 1699.211 1143.950, 1700.213 1141.925, 1700.995 1140 C 1701.776 1138.075, 1702.997 1135.905, 1703.708 1135.179 C 1704.418 1134.452, 1705 1133.214, 1705 1132.429 C 1705 1131.643, 1705.378 1131, 1705.840 1131 C 1706.302 1131, 1707.274 1129.200, 1708 1127 C 1708.726 1124.800, 1709.698 1123, 1710.160 1123 C 1710.622 1123, 1711 1122.525, 1711 1121.945 C 1711 1121.365, 1711.867 1118.987, 1712.927 1116.660 C 1713.987 1114.334, 1715.160 1111.209, 1715.535 1109.715 C 1715.910 1108.222, 1716.618 1107, 1717.108 1107 C 1717.599 1107, 1718 1106.300, 1718 1105.445 C 1718 1104.590, 1718.859 1102.002, 1719.909 1099.695 C 1720.959 1097.388, 1722.135 1093.808, 1722.523 1091.739 C 1722.910 1089.670, 1723.587 1087.756, 1724.026 1087.484 C 1724.466 1087.212, 1725.130 1085.192, 1725.501 1082.995 C 1725.872 1080.798, 1726.525 1079, 1726.951 1079 C 1727.378 1079, 1728.300 1076.300, 1729 1073 C 1729.700 1069.700, 1730.600 1067, 1731 1067 C 1731.400 1067, 1732.300 1064.300, 1733 1061 C 1733.700 1057.700, 1734.641 1055, 1735.091 1055 C 1735.541 1055, 1736.205 1053.425, 1736.566 1051.500 C 1736.927 1049.575, 1737.537 1048, 1737.922 1048 C 1738.307 1048, 1739.199 1045.750, 1739.903 1043 C 1740.608 1040.250, 1741.543 1038, 1741.981 1038 C 1742.419 1038, 1743.073 1036.425, 1743.434 1034.500 C 1743.795 1032.575, 1744.448 1031, 1744.885 1031 C 1745.322 1031, 1746.274 1029.200, 1747 1027 C 1747.726 1024.800, 1748.662 1023, 1749.081 1023 C 1749.499 1023, 1750.138 1021.650, 1750.500 1020 C 1750.862 1018.350, 1751.555 1017, 1752.039 1017 C 1752.524 1017, 1753.459 1015.200, 1754.118 1013 C 1754.777 1010.800, 1755.614 1009, 1755.978 1009 C 1756.341 1009, 1757.944 1006.075, 1759.538 1002.500 C 1761.133 998.925, 1762.789 996, 1763.219 996 C 1763.648 996, 1764 995.480, 1764 994.844 C 1764 994.209, 1765.029 992.296, 1766.287 990.594 C 1767.545 988.892, 1769.683 985.250, 1771.037 982.500 C 1772.392 979.750, 1773.725 977.275, 1774.001 977 C 1775.004 975.998, 1778.879 967.428, 1779.539 964.750 C 1779.912 963.237, 1780.582 962, 1781.029 962 C 1781.476 962, 1782.144 960.620, 1782.515 958.933 C 1782.885 957.246, 1783.809 954.670, 1784.566 953.209 C 1785.324 951.748, 1786.233 948.629, 1786.586 946.277 C 1786.938 943.924, 1787.576 942, 1788.002 942 C 1788.429 942, 1789.093 940.313, 1789.478 938.250 C 1789.864 936.188, 1790.530 934.050, 1790.959 933.500 C 1791.387 932.950, 1792.308 930.072, 1793.004 927.105 C 1793.700 924.138, 1794.881 920.538, 1795.628 919.105 C 1796.376 917.672, 1796.990 915.750, 1796.994 914.833 C 1796.997 913.917, 1797.563 912.979, 1798.250 912.749 C 1799.918 912.192, 1800.022 886.950, 1798.365 884.902 C 1797.741 884.131, 1796.918 882.038, 1796.536 880.250 C 1796.154 878.462, 1795.476 877, 1795.029 877 C 1794.582 877, 1793.955 875.958, 1793.636 874.684 C 1793.316 873.411, 1792.255 871.422, 1791.277 870.266 C 1790.300 869.109, 1788.600 866.928, 1787.500 865.419 C 1781.446 857.115, 1772.325 851.659, 1755.073 846.023 C 1718.584 834.102, 1680.290 834.094, 1647.997 846.001 C 1630.795 852.344, 1623.801 857.592, 1596.573 884.588 C 1585.534 895.533, 1578.365 901.531, 1564.432 911.477 C 1554.570 918.518, 1545.825 925.018, 1545 925.922 C 1543.631 927.421, 1538.864 930.946, 1525.741 940.159 C 1516.253 946.821, 1503.444 956.365, 1501 958.595 C 1498.401 960.966, 1491.793 966.114, 1479 975.732 C 1474.875 978.834, 1471.275 981.679, 1471 982.055 C 1470.725 982.431, 1466.900 985.571, 1462.500 989.032 C 1455.153 994.812, 1450.650 998.558, 1444 1004.422 C 1442.625 1005.634, 1438.800 1008.571, 1435.500 1010.947 C 1432.200 1013.324, 1429.050 1015.806, 1428.500 1016.463 C 1427.950 1017.120, 1424.575 1019.802, 1421 1022.423 C 1417.425 1025.044, 1414.140 1027.821, 1413.700 1028.594 C 1413.260 1029.368, 1412.360 1030.019, 1411.700 1030.043 C 1410.538 1030.085, 1408.254 1031.712, 1391.406 1044.500 C 1387.059 1047.800, 1383.051 1050.825, 1382.501 1051.222 C 1381.950 1051.618, 1380.174 1053.102, 1378.554 1054.518 C 1376.934 1055.934, 1371.175 1060.280, 1365.757 1064.175 C 1356.355 1070.934, 1351 1076.277, 1351 1078.899 C 1351 1079.565, 1350.151 1081.998, 1349.113 1084.305 C 1348.076 1086.612, 1346.915 1089.963, 1346.534 1091.750 C 1346.153 1093.538, 1345.466 1095, 1345.008 1095 C 1344.550 1095, 1343.872 1096.800, 1343.500 1099 C 1343.128 1101.200, 1342.459 1103, 1342.012 1103 C 1341.565 1103, 1340.660 1105.250, 1340 1108 C 1339.340 1110.750, 1338.467 1113, 1338.059 1113 C 1337.652 1113, 1336.764 1115.475, 1336.087 1118.500 C 1335.410 1121.525, 1334.478 1124, 1334.016 1124 C 1333.554 1124, 1332.872 1125.800, 1332.500 1128 C 1332.128 1130.200, 1331.459 1132, 1331.012 1132 C 1330.565 1132, 1329.660 1134.250, 1329 1137 C 1328.340 1139.750, 1327.435 1142, 1326.988 1142 C 1326.541 1142, 1325.872 1143.800, 1325.500 1146 C 1325.128 1148.200, 1324.446 1150, 1323.984 1150 C 1323.522 1150, 1322.590 1152.475, 1321.913 1155.500 C 1321.236 1158.525, 1320.309 1161, 1319.853 1161 C 1319.397 1161, 1318.736 1162.800, 1318.384 1165 C 1318.032 1167.200, 1317.384 1169, 1316.944 1169 C 1316.504 1169, 1315.590 1171.475, 1314.913 1174.500 C 1314.236 1177.525, 1313.324 1180, 1312.886 1180 C 1312.449 1180, 1311.801 1181.544, 1311.447 1183.431 C 1310.445 1188.772, 1308.573 1188.471, 1306.608 1182.652 C 1305.181 1178.426, 1304.946 1174.985, 1305.301 1163.500 C 1305.702 1150.518, 1308.432 1131.156, 1310.023 1130 C 1310.402 1129.725, 1311.018 1127.832, 1311.393 1125.792 C 1311.768 1123.753, 1312.730 1120.828, 1313.531 1119.292 C 1314.332 1117.757, 1314.990 1115.913, 1314.994 1115.195 C 1315.007 1112.439, 1329.783 1082, 1331.108 1082 C 1331.525 1082, 1332.158 1081.077, 1332.516 1079.949 C 1333.347 1077.332, 1347.813 1063, 1349.625 1063 C 1351.225 1063, 1357.155 1057.532, 1375.841 1038.826 C 1389.215 1025.437, 1427.965 985.829, 1450.025 963 C 1456.137 956.675, 1464.005 948.536, 1467.509 944.913 C 1471.013 941.290, 1476.495 936.043, 1479.690 933.252 C 1493.925 920.820, 1503.425 913, 1504.292 913 C 1504.809 913, 1507.317 911.517, 1509.866 909.704 C 1512.415 907.891, 1516.300 905.532, 1518.500 904.462 C 1520.700 903.393, 1523.175 902.035, 1524 901.445 C 1524.825 900.855, 1528.875 898.862, 1533 897.016 C 1537.125 895.169, 1543.425 892.345, 1547 890.739 C 1560.001 884.901, 1581.666 873.863, 1588.500 869.596 C 1602.012 861.159, 1619.752 850.349, 1626 846.746 C 1627.375 845.952, 1632.550 842.936, 1637.500 840.042 C 1648.820 833.425, 1673.996 820.769, 1691.500 812.897 C 1695.015 811.316, 1707.262 804.533, 1714.886 799.945 C 1718.948 797.500, 1723.670 794.660, 1725.379 793.634 C 1729.830 790.962, 1756.308 772.013, 1757.500 770.646 C 1758.050 770.016, 1760.750 767.703, 1763.500 765.506 C 1766.250 763.309, 1769.830 760.384, 1771.457 759.006 C 1775.739 755.376, 1802.878 727.955, 1807 723.093 C 1815.206 713.411, 1818.137 709.793, 1820 707.040 C 1820.825 705.821, 1822.400 703.802, 1823.500 702.554 C 1824.600 701.306, 1826.175 699.266, 1827 698.020 C 1827.825 696.774, 1828.991 695.238, 1829.592 694.607 C 1830.193 693.975, 1831.266 692.371, 1831.977 691.042 C 1832.689 689.713, 1833.668 688.148, 1834.154 687.563 C 1838.202 682.691, 1839 681.597, 1839 680.918 C 1839 680.492, 1839.563 679.548, 1840.250 678.821 C 1842.578 676.361, 1847 669.400, 1847 668.196 C 1847 667.538, 1847.401 667, 1847.892 667 C 1848.382 667, 1849.066 665.875, 1849.411 664.500 C 1849.756 663.125, 1850.445 662, 1850.941 662 C 1851.438 662, 1852.365 660.425, 1853 658.500 C 1853.635 656.575, 1854.521 655, 1854.969 655 C 1855.417 655, 1856.066 653.875, 1856.411 652.500 C 1856.756 651.125, 1857.421 650, 1857.889 650 C 1858.357 650, 1859.307 647.975, 1860 645.500 C 1860.693 643.025, 1861.651 641, 1862.130 641 C 1862.608 641, 1863 640.420, 1863 639.711 C 1863 639.003, 1863.874 636.709, 1864.942 634.614 C 1866.010 632.519, 1867.171 629.499, 1867.521 627.902 C 1867.872 626.306, 1868.522 625, 1868.966 625 C 1869.410 625, 1870.340 621.962, 1871.033 618.250 C 1871.725 614.538, 1872.664 611.256, 1873.120 610.957 C 1873.575 610.659, 1874.249 607.171, 1874.617 603.207 C 1874.986 599.243, 1875.673 596, 1876.144 596 C 1876.615 596, 1877 589.025, 1877 580.500 C 1877 571.975, 1876.615 565, 1876.145 565 C 1875.674 565, 1875.009 561.995, 1874.666 558.322 C 1874.323 554.649, 1873.658 551.387, 1873.190 551.072 C 1872.721 550.757, 1871.750 547.688, 1871.032 544.250 C 1870.314 540.813, 1869.369 538, 1868.931 538 C 1868.493 538, 1867.821 537.010, 1867.436 535.800 C 1866.537 532.965, 1859.681 526.575, 1855.080 524.283 C 1852.162 522.830, 1849.098 522.517, 1838.500 522.592 C 1821.456 522.712, 1812.092 524.515, 1762 537.319 C 1746.270 541.340, 1738.755 543.351, 1687 557.392 C 1665.825 563.137, 1642.200 569.487, 1634.500 571.503 C 1626.800 573.519, 1618.025 575.828, 1615 576.635 C 1607.630 578.599, 1594.213 582.600, 1590.500 583.939 C 1587.078 585.174, 1531.246 600.400, 1526.150 601.488 C 1523.198 602.118, 1522.866 601.983, 1523.347 600.351 C 1523.648 599.333, 1524.192 596.813, 1524.558 594.750 C 1524.924 592.688, 1525.580 591, 1526.017 591 C 1526.455 591, 1527.122 588.750, 1527.500 586 C 1527.878 583.250, 1528.595 581, 1529.094 581 C 1529.592 581, 1530 579.913, 1530 578.583 C 1530 577.254, 1530.344 576.017, 1530.765 575.833 C 1531.186 575.650, 1533.234 570.325, 1535.317 564 C 1537.400 557.675, 1539.472 551.600, 1539.922 550.500 C 1543.416 541.958, 1546 534.722, 1546 533.480 C 1546 532.666, 1546.405 532, 1546.900 532 C 1547.395 532, 1548.340 529.750, 1549 527 C 1549.660 524.250, 1550.605 522, 1551.100 522 C 1551.595 522, 1552 521.525, 1552 520.945 C 1552 520.365, 1552.951 517.777, 1554.114 515.195 C 1555.277 512.613, 1557.077 508.612, 1558.114 506.305 C 1559.151 503.998, 1560 501.635, 1560 501.055 C 1560 500.475, 1560.392 500, 1560.870 500 C 1561.349 500, 1562.307 497.975, 1563 495.500 C 1563.693 493.025, 1564.616 491, 1565.051 491 C 1565.485 491, 1566.138 489.650, 1566.500 488 C 1566.862 486.350, 1567.515 485, 1567.949 485 C 1568.384 485, 1569.307 482.975, 1570 480.500 C 1570.693 478.025, 1571.616 476, 1572.051 476 C 1572.485 476, 1573.138 474.650, 1573.500 473 C 1573.862 471.350, 1574.532 470, 1574.987 470 C 1575.443 470, 1576.392 467.750, 1577.097 465 C 1577.801 462.250, 1578.743 460, 1579.189 460 C 1579.635 460, 1580 459.525, 1580 458.945 C 1580 458.365, 1580.911 455.890, 1582.025 453.445 C 1583.139 451, 1584.320 447.650, 1584.650 446 C 1584.980 444.350, 1585.623 443, 1586.080 443 C 1586.536 443, 1587.206 441.420, 1587.568 439.489 C 1587.930 437.558, 1588.595 435.750, 1589.045 435.472 C 1589.496 435.194, 1590.419 432.386, 1591.097 429.233 C 1591.776 426.080, 1592.664 423.050, 1593.072 422.500 C 1593.479 421.950, 1594.137 419.250, 1594.533 416.500 C 1594.928 413.750, 1595.616 411.040, 1596.059 410.478 C 1596.503 409.916, 1597.408 404.516, 1598.070 398.478 C 1599.438 385.990, 1598.547 304.248, 1596.920 293 C 1596.403 289.425, 1595.463 280.875, 1594.831 274 C 1594.200 267.125, 1593.387 261.275, 1593.025 261 C 1592.663 260.725, 1591.915 254.200, 1591.362 246.500 C 1590.355 232.470, 1591.316 216, 1593.142 216 C 1593.614 216, 1594 214.200, 1594 212 C 1594 209.800, 1593.636 208, 1593.192 208 C 1592.748 208, 1591.960 206.102, 1591.442 203.781 C 1590.192 198.182, 1584.579 193.935, 1573.715 190.367 C 1566.455 187.984, 1563.872 187.660, 1551.500 187.585 C 1538.938 187.509, 1536.832 187.753, 1531 189.958 C 1523.312 192.866, 1518.062 195.730, 1514.264 199.089 C 1512.744 200.433, 1507.452 204.449, 1502.505 208.012 C 1497.558 211.575, 1492.828 215.167, 1491.995 215.995 C 1491.161 216.823, 1485.309 221.275, 1478.990 225.888 C 1472.670 230.501, 1466.771 235.001, 1465.880 235.888 C 1464.989 236.775, 1460.039 240.532, 1454.880 244.237 C 1427.673 263.780, 1416.036 272, 1415.578 272 C 1413.977 272, 1383.400 293.001, 1382 295.062 C 1381.725 295.467, 1378.800 297.797, 1375.500 300.240 C 1361.799 310.381, 1343.046 328.779, 1334.408 340.553 C 1333.359 341.984, 1331.600 344.180, 1330.500 345.434 C 1329.400 346.688, 1327.825 348.734, 1327 349.980 C 1326.175 351.226, 1325.009 352.762, 1324.408 353.393 C 1323.807 354.025, 1322.734 355.629, 1322.023 356.958 C 1321.311 358.287, 1320.333 359.852, 1319.849 360.437 C 1318.990 361.475, 1318.207 362.407, 1311 370.964 C 1304.530 378.648, 1293.586 389.656, 1281.024 401.117 C 1274.162 407.378, 1266.476 414.525, 1263.945 417 C 1261.414 419.475, 1254.953 425.550, 1249.587 430.500 C 1237.037 442.078, 1217.633 461.414, 1212.500 467.456 C 1210.300 470.046, 1208.050 472.691, 1207.500 473.333 C 1206.950 473.975, 1205.150 476.525, 1203.500 479 C 1201.850 481.475, 1199.938 484.095, 1199.250 484.821 C 1198.563 485.548, 1198 486.754, 1198 487.500 C 1198 488.246, 1197.379 489.478, 1196.620 490.237 C 1195.861 490.997, 1193.986 494.291, 1192.453 497.559 C 1190.920 500.826, 1189.352 503.725, 1188.968 504 C 1188.584 504.275, 1187.954 505.512, 1187.567 506.750 C 1187.181 507.987, 1186.518 509, 1186.093 509 C 1185.668 509, 1184.726 510.800, 1184 513 C 1183.274 515.200, 1182.366 517, 1181.983 517 C 1181.087 517, 1176.919 505.501, 1176.274 501.250 C 1176.003 499.462, 1175.442 498, 1175.027 498 C 1174.611 498, 1173.985 495.908, 1173.635 493.351 C 1173.284 490.794, 1172.607 488.206, 1172.130 487.601 C 1171.654 486.995, 1170.703 483.462, 1170.019 479.750 C 1169.334 476.037, 1168.417 473, 1167.981 473 C 1167.544 473, 1166.878 470.750, 1166.500 468 C 1166.122 465.250, 1165.453 463, 1165.015 463 C 1164.576 463, 1163.636 460.075, 1162.925 456.500 C 1162.214 452.925, 1161.305 450, 1160.904 450 C 1160.504 450, 1159.872 448.200, 1159.500 446 C 1159.128 443.800, 1158.496 442, 1158.096 442 C 1157.695 442, 1156.786 439.075, 1156.075 435.500 C 1155.364 431.925, 1154.440 429, 1154.022 429 C 1153.603 429, 1152.732 426.314, 1152.086 423.032 C 1151.440 419.749, 1150.534 416.830, 1150.071 416.544 C 1149.609 416.258, 1148.926 413.994, 1148.554 411.512 C 1148.182 409.031, 1147.514 407, 1147.069 407 C 1146.624 407, 1145.732 404.314, 1145.086 401.032 C 1144.440 397.749, 1143.521 394.822, 1143.043 394.527 C 1142.565 394.231, 1141.870 392.192, 1141.499 389.995 C 1141.128 387.798, 1140.475 386, 1140.049 386 C 1139.622 386, 1138.700 383.300, 1138 380 C 1137.300 376.700, 1136.378 374, 1135.951 374 C 1135.525 374, 1134.872 372.200, 1134.500 370 C 1134.128 367.800, 1133.475 366, 1133.049 366 C 1132.622 366, 1131.700 363.300, 1131 360 C 1130.300 356.700, 1129.378 354, 1128.951 354 C 1128.525 354, 1127.872 352.200, 1127.500 350 C 1127.128 347.800, 1126.486 346, 1126.072 346 C 1125.658 346, 1124.726 343.525, 1124 340.500 C 1123.274 337.475, 1122.353 335, 1121.952 335 C 1121.551 335, 1120.927 333.425, 1120.566 331.500 C 1120.205 329.575, 1119.529 328, 1119.063 328 C 1118.598 328, 1117.910 326.778, 1117.535 325.285 C 1117.160 323.791, 1115.987 320.666, 1114.927 318.340 C 1113.867 316.013, 1113 313.635, 1113 313.055 C 1113 312.475, 1112.585 312, 1112.078 312 C 1111.570 312, 1110.605 310.313, 1109.933 308.250 C 1109.260 306.188, 1108.438 304.275, 1108.105 304 C 1107.772 303.725, 1106.150 300.800, 1104.500 297.500 C 1102.850 294.200, 1101.275 291.275, 1101 291 C 1100.725 290.725, 1099.150 287.800, 1097.500 284.500 C 1095.850 281.200, 1094.188 278.358, 1093.806 278.185 C 1093.425 278.012, 1092.602 276.325, 1091.979 274.435 C 1091.355 272.546, 1090.430 271, 1089.922 271 C 1089.415 271, 1089 270.357, 1089 269.571 C 1089 268.786, 1088.418 267.548, 1087.708 266.821 C 1086.997 266.095, 1085.779 263.925, 1085 262 C 1084.221 260.075, 1083.003 257.905, 1082.292 257.179 C 1081.582 256.452, 1081 255.214, 1081 254.429 C 1081 253.643, 1080.585 253, 1080.078 253 C 1079.570 253, 1078.635 251.425, 1078 249.500 C 1077.365 247.575, 1076.479 246, 1076.031 246 C 1075.583 246, 1074.934 244.875, 1074.589 243.500 C 1074.244 242.125, 1073.520 241, 1072.981 241 C 1072.441 241, 1072 240.532, 1072 239.961 C 1072 238.676, 1057.127 216.198, 1054.323 213.244 C 1053.668 212.553, 1052.846 211.091, 1052.498 209.994 C 1052.150 208.897, 1051.446 208, 1050.933 208 C 1050.420 208, 1050 207.394, 1050 206.653 C 1050 205.912, 1049.100 204.268, 1048 203 C 1046.900 201.732, 1046 200.382, 1046 200 C 1046 199.393, 1045.178 198.280, 1041.154 193.437 C 1040.668 192.852, 1039.699 191.306, 1039 190 C 1038.301 188.694, 1037.228 187.020, 1036.615 186.278 C 1036.002 185.537, 1035.045 184.384, 1034.488 183.715 C 1033.932 183.047, 1032.921 181.246, 1032.243 179.712 C 1031.564 178.179, 1030.548 176.379, 1029.986 175.712 C 1026.059 171.057, 1024.989 169.541, 1024.462 167.881 C 1024.134 166.847, 1023.446 166, 1022.933 166 C 1022.420 166, 1022 165.577, 1022 165.060 C 1022 164.245, 1010.419 146.357, 1009.013 145 C 1008.728 144.725, 1007.146 142.475, 1005.497 140 C 1003.849 137.525, 1001.938 134.905, 1001.250 134.179 C 1000.563 133.452, 999.998 132.552, 999.995 132.179 C 999.993 131.805, 998.710 130.134, 997.146 128.465 C 995.581 126.796, 993.722 124.349, 993.015 123.028 C 992.308 121.707, 991.332 120.148, 990.846 119.563 C 986.822 114.720, 986 113.607, 986 113 C 986 112.618, 985.212 111.374, 984.250 110.234 C 983.288 109.095, 981.600 106.927, 980.500 105.416 C 979.400 103.906, 978.050 102.182, 977.500 101.585 C 976.950 100.988, 975.201 98.588, 973.614 96.250 C 972.027 93.912, 970.370 92, 969.931 92 C 969.493 92, 968.881 91.213, 968.570 90.250 C 968.259 89.287, 966.738 87.150, 965.189 85.500 C 963.641 83.850, 961.952 81.767, 961.437 80.871 C 960.239 78.788, 949.650 66.261, 941.682 57.499 C 936.566 51.874, 933.258 48.013, 931 45.033 C 929.625 43.218, 927.825 40.916, 927 39.917 C 926.175 38.918, 924.600 36.941, 923.500 35.522 C 922.400 34.104, 920.038 31.319, 918.250 29.332 C 916.462 27.346, 915 25.365, 915 24.931 C 915 24.497, 913.441 22.489, 911.535 20.468 C 909.629 18.447, 907.821 16.012, 907.518 15.057 C 907.215 14.102, 905.849 12.722, 904.483 11.991 C 903.118 11.260, 902 10.310, 902 9.879 C 902 8.615, 893.882 3.511, 888.967 1.684 C 883.303 -0.420, 864.219 -0.493, 855.760 1.558 M 933.212 166.188 C 932.546 166.854, 932 169.791, 932 172.714 C 932 175.636, 931.587 178.809, 931.081 179.764 C 930.188 181.452, 927.943 250.202, 927.981 274.691 C 927.992 281.761, 927.580 287.142, 927 287.500 C 926.390 287.877, 926 295.491, 926 307 C 926 318.509, 926.390 326.123, 927 326.500 C 928.218 327.253, 928.366 351.656, 927.157 352.403 C 926.693 352.690, 926.017 359.103, 925.655 366.654 C 925.293 374.206, 924.630 380.635, 924.183 380.942 C 923.735 381.249, 922.805 386.442, 922.117 392.483 C 921.428 398.523, 920.506 403.698, 920.068 403.983 C 919.629 404.267, 918.952 407.087, 918.563 410.250 C 918.174 413.413, 917.538 416, 917.149 416 C 916.760 416, 915.858 419.707, 915.145 424.238 C 914.432 428.768, 913.477 432.706, 913.023 432.988 C 912.568 433.269, 911.876 435.637, 911.484 438.250 C 911.093 440.863, 910.457 443, 910.070 443 C 909.683 443, 908.785 445.929, 908.073 449.509 C 907.361 453.089, 906.418 456.242, 905.977 456.514 C 905.535 456.787, 904.870 458.808, 904.499 461.005 C 904.128 463.202, 903.486 465, 903.072 465 C 902.658 465, 901.726 467.475, 901 470.500 C 900.274 473.525, 899.338 476, 898.920 476 C 898.501 476, 897.862 477.350, 897.500 479 C 897.138 480.650, 896.445 482, 895.961 482 C 895.476 482, 894.541 483.800, 893.882 486 C 893.223 488.200, 892.353 490, 891.950 490 C 891.547 490, 890.934 491.125, 890.589 492.500 C 890.244 493.875, 889.520 495, 888.981 495 C 888.441 495, 888 495.519, 888 496.154 C 888 497.332, 884.506 505.270, 880.774 512.571 C 876.681 520.578, 879.005 522.635, 901 530.471 C 906.775 532.529, 913.075 534.901, 915 535.742 C 925.519 540.340, 932.029 543.749, 936.500 547 C 939.250 549, 942.188 550.891, 943.028 551.202 C 943.869 551.513, 951.177 556.545, 959.269 562.384 C 967.360 568.223, 974.195 573, 974.457 573 C 974.720 573, 979.189 575.925, 984.388 579.500 C 989.588 583.075, 994.173 586, 994.577 586 C 994.981 586, 996.786 587.125, 998.589 588.500 C 1000.392 589.875, 1002.153 591, 1002.503 591 C 1002.853 591, 1005.102 592.350, 1007.500 594 C 1009.898 595.650, 1012.072 597, 1012.330 597 C 1012.588 597, 1015.657 598.803, 1019.150 601.007 C 1022.642 603.211, 1026.625 605.558, 1028 606.223 C 1029.375 606.888, 1031.892 608.460, 1033.594 609.716 C 1035.296 610.972, 1036.938 612, 1037.242 612 C 1037.547 612, 1040.827 613.841, 1044.531 616.092 C 1052.268 620.792, 1055.418 622.613, 1066.500 628.786 C 1070.900 631.237, 1075.694 634.088, 1077.154 635.121 C 1078.614 636.154, 1080.031 637, 1080.302 637 C 1080.574 637, 1083.758 638.800, 1087.380 641 C 1091.001 643.200, 1094.422 645, 1094.982 645 C 1095.542 645, 1096 643.237, 1096 641.083 C 1096 638.840, 1096.534 636.988, 1097.250 636.749 C 1098.231 636.421, 1098.445 626.351, 1098.246 589.972 C 1098.106 564.475, 1097.610 543.363, 1097.142 543.057 C 1096.675 542.750, 1095.974 537.784, 1095.585 532.021 C 1095.195 526.258, 1094.527 521.308, 1094.099 521.021 C 1093.671 520.734, 1092.732 515.663, 1092.013 509.750 C 1091.293 503.837, 1090.353 499, 1089.924 499 C 1089.495 499, 1088.835 496.525, 1088.457 493.500 C 1088.079 490.475, 1087.435 488, 1087.026 488 C 1086.617 488, 1085.706 484.625, 1085 480.500 C 1084.294 476.375, 1083.381 473, 1082.970 473 C 1082.559 473, 1081.907 471.313, 1081.522 469.250 C 1081.136 467.188, 1080.461 465.050, 1080.022 464.500 C 1079.582 463.950, 1078.651 460.912, 1077.952 457.750 C 1077.253 454.587, 1076.353 452, 1075.952 452 C 1075.551 452, 1074.915 450.359, 1074.539 448.354 C 1074.162 446.348, 1073.246 443.761, 1072.501 442.604 C 1071.757 441.447, 1070.840 438.813, 1070.463 436.750 C 1070.086 434.688, 1069.449 433, 1069.048 433 C 1068.647 433, 1067.726 430.525, 1067 427.500 C 1066.274 424.475, 1065.342 422, 1064.928 422 C 1064.514 422, 1063.872 420.200, 1063.500 418 C 1063.128 415.800, 1062.467 414, 1062.031 414 C 1061.594 414, 1060.707 411.892, 1060.058 409.316 C 1059.409 406.739, 1058.302 404.152, 1057.597 403.566 C 1055.922 402.172, 1052 392.713, 1052 390.065 C 1052 388.929, 1051.578 388, 1051.061 388 C 1050.545 388, 1049.813 385.863, 1049.435 383.250 C 1049.057 380.637, 1048.414 378.050, 1048.006 377.500 C 1047.597 376.950, 1046.695 373.350, 1046 369.500 C 1045.305 365.650, 1044.386 362.050, 1043.958 361.500 C 1043.529 360.950, 1042.855 358.700, 1042.459 356.500 C 1042.063 354.300, 1041.410 352.050, 1041.007 351.500 C 1040.605 350.950, 1039.956 349.166, 1039.565 347.535 C 1038.879 344.676, 1036.956 340.020, 1032.914 331.434 C 1031.861 329.198, 1031 326.836, 1031 326.184 C 1031 325.533, 1030.586 325, 1030.079 325 C 1029.573 325, 1028.869 323.681, 1028.515 322.069 C 1028.161 320.457, 1027.254 318.626, 1026.500 318 C 1025.746 317.374, 1024.839 315.543, 1024.485 313.931 C 1024.131 312.319, 1023.499 311, 1023.081 311 C 1022.662 311, 1021.726 309.200, 1021 307 C 1020.274 304.800, 1019.338 303, 1018.919 303 C 1018.501 303, 1017.862 301.650, 1017.500 300 C 1017.138 298.350, 1016.462 297, 1015.998 297 C 1015.534 297, 1014.635 295.425, 1014 293.500 C 1013.365 291.575, 1012.479 290, 1012.031 290 C 1011.583 290, 1010.907 288.767, 1010.529 287.260 C 1010.151 285.753, 1009.520 284.291, 1009.128 284.010 C 1008.735 283.730, 1007.085 280.800, 1005.460 277.500 C 1003.835 274.200, 1001.942 270.905, 1001.253 270.179 C 1000.564 269.452, 1000 268.246, 1000 267.500 C 1000 266.754, 999.438 265.533, 998.750 264.787 C 996.738 262.605, 992 253.350, 992 251.603 C 992 250.721, 991.559 250, 991.019 250 C 990.480 250, 989.756 248.875, 989.411 247.500 C 989.066 246.125, 988.417 245, 987.969 245 C 987.521 245, 986.635 243.425, 986 241.500 C 985.365 239.575, 984.474 238, 984.020 238 C 983.567 238, 982.684 236.762, 982.058 235.250 C 980.347 231.115, 977.822 226.679, 976.329 225.187 C 975.598 224.455, 975 223.283, 975 222.582 C 975 221.458, 974.061 220.085, 970.014 215.288 C 969.452 214.621, 968.436 212.821, 967.757 211.288 C 967.079 209.754, 966.068 207.953, 965.512 207.285 C 964.955 206.616, 963.998 205.463, 963.385 204.722 C 962.772 203.980, 961.699 202.306, 961 201 C 960.301 199.694, 959.332 198.148, 958.846 197.563 C 954.798 192.691, 954 191.597, 954 190.918 C 954 190.492, 953.438 189.548, 952.750 188.821 C 952.063 188.095, 950.150 185.475, 948.500 183 C 946.850 180.525, 945.151 178.050, 944.724 177.500 C 944.297 176.950, 942.272 174.059, 940.224 171.075 C 936.148 165.138, 935.037 164.363, 933.212 166.188 M 1503.367 289.271 C 1496.500 294.636, 1489.602 300.334, 1487.766 302.159 C 1486.813 303.106, 1484.039 305.253, 1481.604 306.929 C 1479.168 308.605, 1477.023 310.327, 1476.837 310.755 C 1476.652 311.184, 1474.070 313.302, 1471.101 315.462 C 1468.131 317.622, 1464.729 320.314, 1463.541 321.445 C 1462.352 322.575, 1459.180 325.300, 1456.491 327.500 C 1453.802 329.700, 1449.311 333.525, 1446.511 336 C 1443.710 338.475, 1439.148 342.406, 1436.371 344.736 C 1433.595 347.065, 1430.196 349.990, 1428.818 351.236 C 1422.415 357.024, 1414.614 363.587, 1413.134 364.433 C 1411.018 365.642, 1380.472 396.489, 1376.335 401.594 C 1374.594 403.742, 1371.219 407.616, 1368.835 410.202 C 1366.451 412.787, 1363.718 415.910, 1362.763 417.140 C 1355.839 426.052, 1331.945 450.645, 1322.579 458.500 C 1316.704 463.427, 1315.476 464.510, 1304.436 474.500 C 1294.006 483.938, 1288.431 489.495, 1285 493.873 C 1283.625 495.627, 1282.019 497.611, 1281.431 498.281 C 1280.165 499.725, 1274.242 508.110, 1268.562 516.500 C 1266.328 519.800, 1264.188 522.642, 1263.806 522.815 C 1263.425 522.988, 1262.602 524.675, 1261.979 526.565 C 1261.355 528.454, 1260.479 530, 1260.031 530 C 1259.583 530, 1258.934 531.125, 1258.589 532.500 C 1258.244 533.875, 1257.579 535, 1257.111 535 C 1256.643 535, 1255.693 537.025, 1255 539.500 C 1254.307 541.975, 1253.384 544, 1252.949 544 C 1252.515 544, 1251.862 545.350, 1251.500 547 C 1251.138 548.650, 1250.468 550, 1250.013 550 C 1249.557 550, 1248.608 552.250, 1247.903 555 C 1247.199 557.750, 1246.297 560, 1245.899 560 C 1245.501 560, 1244.872 561.798, 1244.501 563.995 C 1244.130 566.192, 1243.477 568.205, 1243.050 568.469 C 1242.623 568.733, 1241.704 570.985, 1241.007 573.474 C 1240.310 575.963, 1239.397 578, 1238.978 578 C 1238.560 578, 1237.907 579.237, 1237.528 580.750 C 1235.772 587.755, 1224.873 601.379, 1216.442 607.107 C 1210.798 610.942, 1200.448 615.785, 1193.444 617.869 C 1189.297 619.104, 1185.586 620.906, 1184.444 622.242 C 1182.276 624.777, 1176 639.699, 1176 642.319 C 1176 643.243, 1175.590 644, 1175.088 644 C 1174.586 644, 1173.872 645.800, 1173.500 648 C 1173.128 650.200, 1172.463 652, 1172.021 652 C 1171.579 652, 1170.636 654.925, 1169.925 658.500 C 1169.214 662.075, 1168.317 665, 1167.930 665 C 1167.543 665, 1166.923 667.025, 1166.552 669.500 C 1166.181 671.975, 1165.517 674, 1165.075 674 C 1164.634 674, 1163.700 676.700, 1163 680 C 1162.300 683.300, 1161.338 686, 1160.863 686 C 1160.389 686, 1160 686.868, 1160 687.929 C 1160 688.989, 1159.418 690.452, 1158.708 691.179 C 1157.997 691.905, 1156.831 693.930, 1156.116 695.678 C 1155.402 697.426, 1154.183 699.100, 1153.408 699.397 C 1152.634 699.694, 1152 700.571, 1152 701.346 C 1152 702.121, 1151.325 703.315, 1150.500 704 C 1146.789 707.080, 1149.167 712.815, 1158 722.082 C 1160.475 724.679, 1164.300 728.902, 1166.500 731.467 C 1168.700 734.032, 1174.325 740.094, 1179 744.938 C 1189.187 755.493, 1196.999 764.274, 1203.967 773 C 1205.065 774.375, 1206.360 775.978, 1206.846 776.563 C 1207.332 777.148, 1208.301 778.694, 1209 780 C 1209.699 781.306, 1210.668 782.852, 1211.154 783.437 C 1211.640 784.022, 1212.941 785.595, 1214.046 786.934 C 1215.151 788.273, 1216.316 790.411, 1216.636 791.684 C 1216.955 792.958, 1217.521 794, 1217.893 794 C 1218.266 794, 1219.904 796.588, 1221.535 799.750 C 1223.166 802.913, 1224.744 805.725, 1225.043 806 C 1226.173 807.042, 1238 831.231, 1238 832.502 C 1238 833.234, 1238.338 833.983, 1238.750 834.167 C 1239.162 834.350, 1240.280 836.188, 1241.234 838.250 C 1242.187 840.313, 1243.388 842, 1243.902 842 C 1244.416 842, 1250.835 835.883, 1258.168 828.406 C 1265.501 820.930, 1275.995 810.467, 1281.490 805.156 C 1298.833 788.391, 1316.170 770.528, 1330.036 755.134 C 1330.880 754.196, 1332.905 751.645, 1334.536 749.464 C 1336.166 747.284, 1337.950 744.987, 1338.500 744.361 C 1339.050 743.734, 1340.400 741.972, 1341.500 740.446 C 1342.600 738.919, 1343.950 737.182, 1344.500 736.585 C 1345.050 735.988, 1346.799 733.587, 1348.386 731.250 C 1349.973 728.913, 1351.630 727, 1352.069 727 C 1352.507 727, 1353.134 726.153, 1353.462 725.119 C 1353.986 723.468, 1354.803 722.303, 1358.846 717.437 C 1359.332 716.852, 1360.301 715.306, 1361 714 C 1361.699 712.694, 1362.668 711.148, 1363.154 710.563 C 1367.178 705.720, 1368 704.607, 1368 704 C 1368 703.390, 1369.199 701.776, 1372.986 697.288 C 1373.548 696.621, 1374.529 694.933, 1375.165 693.538 C 1375.801 692.142, 1376.699 691, 1377.161 691 C 1377.622 691, 1378 690.394, 1378 689.653 C 1378 688.912, 1378.900 687.268, 1380 686 C 1381.100 684.732, 1382 683.345, 1382 682.918 C 1382 682.492, 1382.578 681.548, 1383.284 680.821 C 1383.990 680.095, 1385.863 677.250, 1387.447 674.500 C 1389.031 671.750, 1390.612 669.275, 1390.961 669 C 1391.310 668.725, 1392.885 666.250, 1394.461 663.500 C 1396.037 660.750, 1397.624 658.275, 1397.986 658 C 1398.349 657.725, 1398.941 656.825, 1399.302 656 C 1399.662 655.175, 1401.059 652.700, 1402.404 650.500 C 1403.750 648.300, 1406.109 644.085, 1407.648 641.133 C 1409.186 638.181, 1410.970 635.565, 1411.611 635.319 C 1412.252 635.073, 1413.335 632.876, 1414.018 630.436 C 1414.701 627.996, 1415.616 626, 1416.051 626 C 1416.485 626, 1417.138 624.650, 1417.500 623 C 1417.862 621.350, 1418.538 620, 1419.002 620 C 1419.466 620, 1420.395 618.313, 1421.067 616.250 C 1421.740 614.188, 1422.581 612.275, 1422.938 612 C 1423.294 611.725, 1424.912 608.800, 1426.533 605.500 C 1428.154 602.200, 1429.757 599.275, 1430.095 599 C 1430.433 598.725, 1431.260 596.813, 1431.933 594.750 C 1432.605 592.688, 1433.534 591, 1433.998 591 C 1434.462 591, 1435.138 589.650, 1435.500 588 C 1435.862 586.350, 1436.517 585, 1436.954 585 C 1437.392 585, 1438.020 583.650, 1438.350 582 C 1438.680 580.350, 1439.861 577, 1440.975 574.555 C 1442.089 572.110, 1443 569.410, 1443 568.555 C 1443 567.700, 1443.378 567, 1443.841 567 C 1444.303 567, 1445.236 564.525, 1445.913 561.500 C 1446.590 558.475, 1447.522 556, 1447.984 556 C 1448.446 556, 1449.128 554.200, 1449.500 552 C 1449.872 549.800, 1450.525 548, 1450.951 548 C 1451.378 548, 1452.300 545.300, 1453 542 C 1453.700 538.700, 1454.641 536, 1455.091 536 C 1455.541 536, 1456.205 534.425, 1456.566 532.500 C 1456.927 530.575, 1457.551 529, 1457.952 529 C 1458.353 529, 1459.274 526.525, 1460 523.500 C 1460.726 520.475, 1461.677 518, 1462.114 518 C 1462.552 518, 1463.205 516.425, 1463.566 514.500 C 1463.927 512.575, 1464.551 511, 1464.953 511 C 1465.355 511, 1466.254 509.087, 1466.952 506.750 C 1467.650 504.413, 1468.522 502.275, 1468.891 502 C 1469.259 501.725, 1470.889 498.125, 1472.513 494 C 1474.137 489.875, 1475.811 486.350, 1476.233 486.167 C 1476.655 485.983, 1477 485.338, 1477 484.732 C 1477 483.715, 1478.092 481.128, 1483.010 470.500 C 1484.028 468.300, 1485.166 465.262, 1485.539 463.750 C 1485.912 462.238, 1486.568 461, 1486.997 461 C 1487.426 461, 1488.073 459.425, 1488.434 457.500 C 1488.795 455.575, 1489.448 454, 1489.886 454 C 1490.323 454, 1491.274 451.525, 1492 448.500 C 1492.726 445.475, 1493.658 443, 1494.072 443 C 1494.486 443, 1495.128 441.200, 1495.500 439 C 1495.872 436.800, 1496.504 435, 1496.904 435 C 1497.305 435, 1498.224 431.962, 1498.947 428.250 C 1499.669 424.538, 1500.609 421.050, 1501.034 420.500 C 1501.459 419.950, 1502.131 416.800, 1502.527 413.500 C 1502.923 410.200, 1503.739 406.886, 1504.340 406.136 C 1505.059 405.240, 1505.487 395.970, 1505.587 379.136 C 1505.745 352.630, 1506.709 335, 1508 335 C 1508.408 335, 1509.065 331.288, 1509.459 326.750 C 1509.854 322.212, 1510.598 317.991, 1511.113 317.368 C 1511.627 316.746, 1512.333 309.658, 1512.680 301.618 C 1513.237 288.718, 1513.126 287, 1511.737 287 C 1510.872 287, 1509.564 286.784, 1508.832 286.521 C 1508.099 286.257, 1505.640 287.495, 1503.367 289.271 M 447.296 381.737 C 447.599 383.257, 448.165 387.313, 448.553 390.750 C 448.941 394.188, 449.598 397, 450.014 397 C 450.430 397, 451.078 399.468, 451.455 402.484 C 451.832 405.501, 452.494 408.187, 452.927 408.455 C 453.360 408.723, 454.290 411.655, 454.994 414.971 C 455.698 418.287, 456.612 421, 457.025 421 C 457.439 421, 458.073 422.575, 458.434 424.500 C 458.795 426.425, 459.448 428, 459.886 428 C 460.323 428, 461.274 430.475, 462 433.500 C 462.726 436.525, 463.677 439, 464.114 439 C 464.552 439, 465.205 440.575, 465.566 442.500 C 465.927 444.425, 466.569 446, 466.993 446 C 467.416 446, 468.299 448.132, 468.955 450.737 C 469.611 453.342, 470.458 455.704, 470.837 455.987 C 472.395 457.146, 479.803 473.766, 480.650 478 C 480.980 479.650, 481.608 481, 482.046 481 C 482.483 481, 483.144 482.380, 483.515 484.067 C 483.885 485.754, 484.819 488.342, 485.589 489.817 C 486.359 491.293, 487.267 493.962, 487.606 495.750 C 487.945 497.538, 488.583 499, 489.023 499 C 489.464 499, 490.128 500.800, 490.500 503 C 490.872 505.200, 491.541 507, 491.988 507 C 492.435 507, 493.361 509.363, 494.045 512.250 C 494.730 515.138, 495.770 517.810, 496.357 518.190 C 496.985 518.596, 497.590 524.241, 497.830 531.940 C 498.053 539.123, 498.579 545, 498.998 545 C 499.417 545, 499.975 547.587, 500.238 550.750 C 500.731 556.674, 501.639 559.325, 504.948 564.500 C 507.990 569.258, 516 585.389, 516 586.758 C 516 587.441, 516.400 588, 516.889 588 C 517.377 588, 518.073 589.575, 518.434 591.500 C 518.795 593.425, 519.479 595, 519.953 595 C 520.427 595, 521.392 597.250, 522.097 600 C 522.801 602.750, 523.743 605, 524.189 605 C 524.635 605, 525 605.475, 525 606.055 C 525 606.635, 525.867 609.013, 526.927 611.340 C 527.987 613.666, 529.160 616.791, 529.535 618.285 C 529.910 619.778, 530.573 621, 531.009 621 C 531.444 621, 532.340 623.250, 533 626 C 533.660 628.750, 534.511 631, 534.892 631 C 535.272 631, 536.867 633.813, 538.436 637.250 C 540.005 640.688, 541.561 643.725, 541.894 644 C 542.543 644.536, 545.132 648.918, 547.212 653 C 547.913 654.375, 548.848 655.950, 549.290 656.500 C 549.733 657.050, 551.768 659.750, 553.812 662.500 C 560.614 671.649, 567.702 679.185, 573.735 683.682 C 575.806 685.225, 577.854 687.043, 578.287 687.722 C 578.720 688.400, 582.095 690.721, 585.787 692.878 C 592.694 696.915, 600.618 703.327, 604.919 708.360 C 606.263 709.933, 607.854 711.733, 608.454 712.360 C 609.430 713.380, 620.161 726.534, 623.997 731.412 C 625.661 733.529, 642.443 750.420, 648.584 756.159 C 654.107 761.321, 658.572 766.332, 659.962 768.929 C 660.616 770.151, 661.905 771.986, 662.826 773.006 C 663.747 774.026, 666.075 776.761, 668 779.083 C 672.140 784.078, 686.262 798.157, 691.684 802.694 C 702.617 811.843, 713.428 818.510, 735.500 829.715 C 745.770 834.929, 752.729 837.544, 771 843.056 C 789.548 848.652, 791.608 849.441, 806 856.466 C 818.268 862.455, 826.575 868.263, 836.522 877.804 C 844.528 885.485, 849.625 888.556, 868.072 896.814 C 871.686 898.432, 878.436 901.489, 883.072 903.608 C 895.491 909.282, 949.697 936.655, 952.817 938.827 C 954.293 939.854, 957.975 942.049, 961 943.704 C 964.025 945.359, 969.373 948.465, 972.884 950.606 C 976.395 952.748, 980.766 955.400, 982.597 956.500 C 984.428 957.600, 988.531 960.075, 991.713 961.999 C 994.896 963.924, 997.950 965.678, 998.500 965.898 C 999.050 966.117, 1001.307 967.467, 1003.516 968.898 C 1005.726 970.329, 1008.426 972.055, 1009.516 972.733 C 1010.607 973.411, 1014.587 975.886, 1018.359 978.233 C 1022.132 980.580, 1026.182 983.036, 1027.359 983.691 C 1028.537 984.345, 1036.556 989.520, 1045.180 995.191 C 1053.804 1000.861, 1063.029 1006.736, 1065.680 1008.246 C 1071.077 1011.321, 1072.076 1011.942, 1080.171 1017.250 C 1083.317 1019.313, 1086.118 1021, 1086.397 1021 C 1086.676 1021, 1089.801 1023.025, 1093.341 1025.500 C 1096.882 1027.975, 1100.073 1030, 1100.432 1030 C 1100.791 1030, 1103.522 1031.800, 1106.500 1034 C 1109.478 1036.200, 1112.294 1038, 1112.757 1038 C 1113.221 1038, 1116.383 1040.025, 1119.784 1042.500 C 1123.186 1044.975, 1126.249 1047, 1126.591 1047 C 1126.934 1047, 1131.409 1049.925, 1136.537 1053.500 C 1141.664 1057.075, 1146.115 1060, 1146.427 1060 C 1147.108 1060, 1159.286 1068.896, 1160 1069.915 C 1160.454 1070.563, 1171.677 1079.152, 1179.393 1084.757 C 1181.102 1085.998, 1183.175 1087.585, 1184 1088.283 C 1184.825 1088.981, 1189.100 1092.181, 1193.500 1095.394 C 1197.900 1098.608, 1201.950 1101.756, 1202.500 1102.390 C 1204.363 1104.537, 1212.386 1110, 1213.678 1110 C 1214.384 1110, 1215.249 1108.856, 1215.600 1107.457 C 1216.448 1104.079, 1215.010 1074, 1214.001 1074 C 1213.568 1074, 1212.921 1066.463, 1212.565 1057.250 C 1212.208 1048.037, 1211.486 1039.719, 1210.958 1038.764 C 1210.408 1037.766, 1210 1024.433, 1210 1007.436 C 1210 979.095, 1208.633 954.060, 1207.028 953 C 1206.611 952.725, 1205.953 949.920, 1205.565 946.766 C 1205.177 943.612, 1204.506 940.813, 1204.073 940.545 C 1203.640 940.277, 1202.710 937.345, 1202.006 934.029 C 1201.302 930.713, 1200.380 928, 1199.956 928 C 1199.532 928, 1198.608 925.750, 1197.903 923 C 1197.199 920.250, 1196.293 918, 1195.890 918 C 1195.488 918, 1194.862 916.650, 1194.500 915 C 1194.138 913.350, 1193.517 912, 1193.121 912 C 1192.726 912, 1191.832 910.425, 1191.136 908.500 C 1190.440 906.575, 1189.450 905, 1188.935 905 C 1188.421 905, 1188 904.394, 1188 903.653 C 1188 902.912, 1187.100 901.268, 1186 900 C 1184.900 898.732, 1184 897.382, 1184 897 C 1184 896.618, 1183.213 895.379, 1182.250 894.246 C 1181.287 893.113, 1179.903 891.334, 1179.173 890.293 C 1176.820 886.935, 1158.071 861.540, 1157.043 860.318 C 1153.888 856.569, 1141 837.835, 1141 836.998 C 1141 836.449, 1140.579 836, 1140.065 836 C 1139.550 836, 1138.560 834.425, 1137.864 832.500 C 1137.168 830.575, 1136.274 829, 1135.879 829 C 1135.483 829, 1134.862 827.650, 1134.500 826 C 1134.138 824.350, 1133.472 823, 1133.020 823 C 1132.569 823, 1131.660 820.750, 1131 818 C 1130.340 815.250, 1129.431 813, 1128.980 813 C 1128.528 813, 1127.862 811.650, 1127.500 810 C 1127.138 808.350, 1126.462 807, 1125.998 807 C 1125.534 807, 1124.645 805.454, 1124.021 803.565 C 1123.398 801.675, 1122.575 799.988, 1122.194 799.815 C 1121.812 799.642, 1120.150 796.914, 1118.500 793.753 C 1116.850 790.593, 1115.211 788.005, 1114.858 788.003 C 1114.506 788.002, 1113.955 786.958, 1113.636 785.684 C 1113.316 784.411, 1112.255 782.422, 1111.277 781.266 C 1110.300 780.109, 1108.600 777.933, 1107.500 776.430 C 1104.274 772.023, 1098.793 765.925, 1094.599 762.078 C 1088.127 756.141, 1075.838 743.005, 1072.562 738.524 C 1071.497 737.066, 1069.894 735.030, 1069 734 C 1068.106 732.970, 1066.503 730.939, 1065.438 729.486 C 1064.372 728.034, 1062.487 725.733, 1061.250 724.372 C 1060.013 723.011, 1059 721.470, 1059 720.948 C 1059 720.427, 1058.347 720, 1057.550 720 C 1056.752 720, 1055.740 719.374, 1055.300 718.609 C 1053.921 716.209, 1038.966 699.931, 1028.518 689.458 C 1014.387 675.293, 1000.650 663.494, 992.648 658.649 C 988.880 656.367, 981.905 652.130, 977.148 649.234 C 972.392 646.337, 967.825 643.683, 967 643.336 C 966.175 642.988, 964.150 641.743, 962.500 640.568 C 960.850 639.393, 958.375 637.867, 957 637.177 C 955.625 636.486, 953.600 635.370, 952.500 634.698 C 948.420 632.202, 941.339 628.156, 936 625.269 C 932.975 623.633, 928.813 621.328, 926.750 620.147 C 924.688 618.966, 921.425 617.100, 919.500 616 C 913.985 612.849, 910.139 610.628, 900.761 605.180 C 895.955 602.388, 888.530 598.204, 884.261 595.882 C 872.412 589.436, 870.475 588.329, 865.815 585.336 C 863.442 583.811, 859.475 581.466, 857 580.125 C 854.525 578.784, 850.700 576.637, 848.500 575.354 C 846.300 574.071, 838.425 570.068, 831 566.458 C 804.488 553.567, 803.982 553.263, 794.932 544.812 C 788.475 538.783, 765.779 523.375, 753.110 516.420 C 718.823 497.598, 716.065 496.202, 699.072 489.064 C 692.237 486.193, 677.387 479.675, 666.072 474.581 C 654.758 469.486, 638.075 462.711, 629 459.525 C 619.925 456.339, 611.082 453.118, 609.349 452.366 C 607.616 451.615, 605.863 451, 605.455 451 C 604.612 451, 577.122 439.382, 566.500 434.537 C 562.650 432.781, 557.025 430.262, 554 428.940 C 550.975 427.618, 540.571 422.591, 530.879 417.768 C 521.188 412.946, 513.011 409, 512.709 409 C 512.407 409, 506.836 406.479, 500.330 403.397 C 478.317 392.972, 473.809 390.896, 469.149 389.037 C 466.592 388.018, 460.505 385.336, 455.622 383.079 L 446.745 378.974 447.296 381.737 M 1778 596.141 C 1696.827 615.556, 1659.753 624.128, 1651 625.507 C 1615.083 631.167, 1604.254 634.022, 1588.482 641.989 C 1581.892 645.318, 1575.150 648.831, 1573.500 649.796 C 1571.850 650.761, 1568.250 652.855, 1565.500 654.450 C 1562.750 656.045, 1558.415 658.846, 1555.866 660.675 C 1553.317 662.504, 1550.926 664, 1550.552 664 C 1550.179 664, 1545.430 667.150, 1540 671 C 1534.570 674.850, 1529.845 678, 1529.500 678 C 1529.155 678, 1524.514 681.038, 1519.187 684.750 C 1513.859 688.463, 1508.740 691.951, 1507.810 692.500 C 1499.525 697.402, 1459.726 725.320, 1454.694 729.760 C 1449.183 734.623, 1435.545 748.604, 1434 750.973 C 1428.361 759.623, 1417.110 772.627, 1404.128 785.500 C 1387.462 802.027, 1387.459 802.030, 1384.250 805.246 C 1373.716 815.801, 1307.611 881.167, 1301.418 887.153 C 1292.742 895.537, 1290 898.772, 1290 900.620 C 1290 901.287, 1289.438 902.021, 1288.750 902.251 C 1287.273 902.745, 1287.401 926.006, 1288.887 926.939 C 1289.379 927.247, 1290.109 932.337, 1290.510 938.250 C 1290.911 944.163, 1291.577 949, 1291.990 949 C 1292.404 949, 1293.050 953.163, 1293.427 958.250 C 1293.804 963.337, 1294.755 969.300, 1295.541 971.500 C 1296.327 973.700, 1297.401 979.100, 1297.930 983.500 C 1298.458 987.900, 1299.575 996.675, 1300.411 1003 C 1301.248 1009.325, 1301.947 1020.462, 1301.966 1027.750 C 1301.985 1035.037, 1302.383 1041, 1302.850 1041 C 1303.318 1041, 1304.781 1039.568, 1306.100 1037.818 C 1307.420 1036.067, 1309.721 1033.369, 1311.213 1031.821 C 1312.705 1030.273, 1314.454 1028.021, 1315.098 1026.816 C 1316.314 1024.545, 1316.553 1024.225, 1320.266 1019.893 C 1321.494 1018.459, 1323.175 1016.279, 1324 1015.049 C 1324.825 1013.820, 1326.287 1011.887, 1327.250 1010.754 C 1328.213 1009.621, 1329 1008.382, 1329 1008 C 1329 1007.618, 1329.892 1006.225, 1330.981 1004.903 C 1333.872 1001.397, 1334.207 1000.939, 1337.497 996 C 1341.384 990.165, 1349.893 979.001, 1352.199 976.711 C 1353.189 975.727, 1354.006 974.602, 1354.012 974.211 C 1354.019 973.820, 1355.707 971.667, 1357.762 969.426 C 1359.818 967.185, 1363.590 962.910, 1366.145 959.926 C 1368.699 956.942, 1371.849 953.355, 1373.145 951.955 C 1374.440 950.555, 1377.075 947.465, 1379 945.087 C 1380.925 942.710, 1382.953 940.255, 1383.506 939.633 C 1385.485 937.406, 1389.526 932.240, 1391 930.053 C 1394.846 924.346, 1404.720 911.153, 1407.456 908.065 C 1415.113 899.423, 1430.054 885.027, 1435.500 881.044 C 1438.800 878.631, 1442.574 875.609, 1443.886 874.328 C 1445.199 873.048, 1446.693 872, 1447.207 872 C 1447.721 872, 1451.113 869.879, 1454.745 867.288 C 1458.377 864.696, 1462.602 861.883, 1464.133 861.038 C 1466.804 859.563, 1479.225 852.439, 1485.500 848.784 C 1487.150 847.823, 1490.750 845.875, 1493.500 844.455 C 1501.158 840.502, 1516.661 831.997, 1523.500 827.999 C 1528.661 824.981, 1537.076 820.442, 1549 814.244 C 1559.921 808.568, 1563.740 806.505, 1574.750 800.340 C 1577.362 798.877, 1582.875 795.899, 1587 793.723 C 1591.125 791.547, 1596.412 788.694, 1598.750 787.383 C 1601.087 786.072, 1605.137 783.809, 1607.750 782.354 C 1610.362 780.898, 1618.575 776.251, 1626 772.027 C 1633.425 767.803, 1642.650 762.625, 1646.500 760.520 C 1652.950 756.993, 1685.745 733.207, 1690.608 728.528 C 1691.768 727.413, 1694.878 724.700, 1697.521 722.500 C 1703.456 717.559, 1727.066 693.985, 1732.500 687.574 C 1734.700 684.979, 1737.952 681.200, 1739.727 679.178 C 1741.502 677.155, 1742.964 675.231, 1742.977 674.903 C 1742.990 674.575, 1743.816 673.366, 1744.812 672.216 C 1745.809 671.067, 1747.497 668.923, 1748.562 667.453 C 1749.628 665.982, 1750.967 664.266, 1751.537 663.639 C 1752.108 663.013, 1753.660 660.700, 1754.986 658.500 C 1757.945 653.591, 1765.246 643.615, 1766.194 643.185 C 1766.575 643.012, 1767.398 641.325, 1768.021 639.435 C 1768.645 637.546, 1769.570 636, 1770.078 636 C 1770.585 636, 1771 635.357, 1771 634.571 C 1771 633.786, 1771.582 632.548, 1772.292 631.821 C 1773.003 631.095, 1774.215 628.925, 1774.985 627 C 1775.756 625.075, 1776.674 623.275, 1777.026 623 C 1777.943 622.284, 1783 611.330, 1783 610.062 C 1783 609.478, 1783.392 609, 1783.870 609 C 1784.349 609, 1785.307 606.975, 1786 604.500 C 1786.693 602.025, 1787.603 600, 1788.022 600 C 1788.440 600, 1789.093 598.767, 1789.471 597.260 C 1789.849 595.753, 1790.685 594.185, 1791.329 593.775 C 1793.138 592.625, 1791.449 592.924, 1778 596.141 M 176 676.940 C 171.325 678.001, 164.575 679.732, 161 680.786 L 154.500 682.702 164.500 684.990 C 196.967 692.418, 218.543 706.986, 247.348 740.928 C 257.261 752.610, 264.789 759.926, 273.265 766.118 C 277.244 769.025, 282.141 772.775, 284.148 774.451 C 286.154 776.128, 289.715 779.075, 292.062 781 C 294.408 782.925, 300.056 788.100, 304.612 792.500 C 309.168 796.900, 316.354 803.650, 320.581 807.500 C 324.809 811.350, 329.247 815.400, 330.443 816.500 C 333.692 819.487, 342.896 826.295, 348 829.486 C 350.475 831.033, 352.725 832.585, 353 832.936 C 353.275 833.286, 357.325 835.298, 362 837.408 C 381.904 846.389, 399.537 855.567, 423.743 869.544 C 433.227 875.020, 442.227 880.176, 443.743 881.002 C 445.260 881.828, 447.919 883.516, 449.654 884.752 C 451.389 885.988, 453.044 887, 453.331 887 C 453.618 887, 457.519 889.250, 462 892 C 466.481 894.750, 470.313 897, 470.516 897 C 472.156 897, 496.445 912.293, 508.787 921.096 C 517.194 927.093, 524.313 932, 524.606 932 C 524.900 932, 527.246 933.449, 529.820 935.220 C 552.128 950.570, 577.834 957.086, 665.687 969.655 L 677.875 971.399 682.852 968.002 C 688.090 964.428, 689 962.485, 689 954.875 C 689 952.744, 689.380 951, 689.845 951 C 690.310 951, 691.246 942.788, 691.927 932.750 C 692.607 922.712, 693.548 913.600, 694.018 912.500 C 694.488 911.400, 695.155 904.200, 695.501 896.500 C 696.125 882.615, 696.109 882.472, 693.589 879.088 C 691.412 876.165, 672.945 863, 671.022 863 C 670.656 863, 668.589 861.663, 666.428 860.028 C 664.268 858.393, 662.144 857.043, 661.709 857.028 C 660.228 856.976, 631.639 837.747, 627.903 834.290 C 625.858 832.398, 622.895 829.871, 621.320 828.675 C 619.744 827.479, 617.139 825.375, 615.530 824 C 609.760 819.067, 571.333 780.338, 564.488 772.556 C 560.645 768.187, 555.250 762.181, 552.500 759.209 C 549.750 756.237, 547.154 753.200, 546.731 752.458 C 546.001 751.178, 542.583 747.490, 530.552 735 C 527.638 731.975, 523.366 728.494, 521.059 727.264 C 516.775 724.981, 490.914 719.414, 453 712.614 C 420.308 706.750, 361.067 697.096, 350.964 695.986 C 345.273 695.360, 322.689 695.051, 294.964 695.219 L 248.500 695.500 238.595 692.713 C 229.876 690.260, 216.636 684.574, 213.360 681.876 C 212.733 681.360, 209.358 679.809, 205.860 678.431 C 197.056 674.961, 186.941 674.456, 176 676.940 M 1699.500 897.722 C 1696.717 898.216, 1684.723 900.826, 1677.300 902.554 C 1673.160 903.518, 1668.960 905.493, 1664.660 908.499 C 1661.119 910.974, 1658.013 913, 1657.759 913 C 1657.505 913, 1650.241 917.725, 1641.618 923.500 C 1632.994 929.275, 1625.720 934, 1625.454 934 C 1625.187 934, 1621.876 936.250, 1618.095 939 C 1614.314 941.750, 1610.933 944, 1610.582 944 C 1609.986 944, 1603.372 948.337, 1586.532 959.769 C 1582.699 962.371, 1579.099 964.679, 1578.532 964.897 C 1577.964 965.116, 1574.350 967.426, 1570.500 970.030 C 1555.670 980.061, 1533.740 994.195, 1529.541 996.427 C 1527.124 997.712, 1523.427 1000.159, 1521.324 1001.866 C 1519.221 1003.572, 1511.200 1009.516, 1503.500 1015.075 C 1495.800 1020.633, 1489.050 1025.721, 1488.500 1026.381 C 1487.950 1027.041, 1485.729 1028.913, 1483.565 1030.541 C 1481.400 1032.168, 1477.047 1035.975, 1473.891 1039 C 1470.734 1042.025, 1467.330 1045.235, 1466.326 1046.134 C 1465.322 1047.032, 1461.800 1050.783, 1458.500 1054.469 C 1455.200 1058.154, 1451.375 1062.392, 1450 1063.886 C 1448.625 1065.380, 1446.151 1068.605, 1444.503 1071.051 C 1442.854 1073.498, 1441.278 1075.725, 1441 1076 C 1440.722 1076.275, 1439.147 1078.525, 1437.500 1081 C 1435.853 1083.475, 1434.279 1085.725, 1434.003 1086 C 1432.602 1087.392, 1421.009 1110.359, 1421.004 1111.750 C 1421.002 1112.438, 1420.621 1113, 1420.158 1113 C 1419.695 1113, 1418.744 1114.912, 1418.044 1117.250 C 1416.821 1121.338, 1413.861 1128.570, 1411.896 1132.272 C 1411.379 1133.246, 1410.680 1136.059, 1410.342 1138.522 C 1410.004 1140.985, 1409.412 1143, 1409.025 1143 C 1408.639 1143, 1407.727 1146.825, 1407 1151.500 C 1406.273 1156.175, 1405.352 1160, 1404.954 1160 C 1404.556 1160, 1403.910 1162.588, 1403.519 1165.750 C 1403.127 1168.912, 1402.453 1171.950, 1402.020 1172.500 C 1401.587 1173.050, 1400.658 1176.763, 1399.956 1180.750 C 1399.254 1184.737, 1398.353 1188, 1397.953 1188 C 1397.554 1188, 1396.923 1190.025, 1396.552 1192.500 C 1396.181 1194.975, 1395.527 1197, 1395.098 1197 C 1394.669 1197, 1393.764 1199.475, 1393.087 1202.500 C 1392.410 1205.525, 1391.489 1208, 1391.040 1208 C 1390.590 1208, 1389.927 1209.575, 1389.566 1211.500 C 1389.205 1213.425, 1388.538 1215, 1388.085 1215 C 1387.631 1215, 1386.693 1217.025, 1386 1219.500 C 1385.307 1221.975, 1384.349 1224, 1383.870 1224 C 1383.392 1224, 1383 1224.643, 1383 1225.429 C 1383 1226.214, 1382.418 1227.452, 1381.708 1228.179 C 1380.997 1228.905, 1379.817 1230.963, 1379.086 1232.750 C 1378.355 1234.537, 1377.411 1236, 1376.987 1236 C 1376.563 1236, 1375.960 1237.013, 1375.645 1238.250 C 1375.331 1239.487, 1373.683 1242.016, 1371.984 1243.870 C 1370.284 1245.723, 1367.756 1249.548, 1366.364 1252.370 C 1364.973 1255.191, 1363.472 1258.202, 1363.028 1259.060 C 1362.584 1259.917, 1361.672 1263.292, 1361.002 1266.560 C 1360.332 1269.827, 1359.447 1272.950, 1359.036 1273.500 C 1358.625 1274.050, 1358.029 1275.557, 1357.712 1276.849 C 1357.251 1278.726, 1357.474 1279.090, 1358.818 1278.663 C 1369.227 1275.356, 1426.063 1255.527, 1430.956 1253.496 C 1439.927 1249.772, 1453.259 1242.903, 1467.457 1234.687 C 1474.081 1230.854, 1480.400 1227.209, 1481.500 1226.587 C 1482.600 1225.965, 1486.200 1223.681, 1489.500 1221.511 C 1492.800 1219.342, 1502.925 1212.722, 1512 1206.800 C 1521.075 1200.878, 1534.093 1192.088, 1540.929 1187.266 C 1547.765 1182.445, 1553.840 1178.324, 1554.429 1178.109 C 1556.905 1177.204, 1572.050 1166.061, 1578.888 1160.113 C 1590.234 1150.243, 1597.661 1142.069, 1606.745 1129.451 C 1608.329 1127.251, 1611 1122.390, 1612.076 1119.750 C 1612.692 1118.237, 1613.602 1117, 1614.098 1117 C 1614.594 1117, 1615.004 1116.438, 1615.009 1115.750 C 1615.014 1115.063, 1616.125 1112.250, 1617.478 1109.500 C 1618.831 1106.750, 1619.952 1103.713, 1619.969 1102.750 C 1619.986 1101.787, 1620.405 1101, 1620.900 1101 C 1621.395 1101, 1622.354 1098.638, 1623.031 1095.750 C 1623.708 1092.862, 1624.613 1090.050, 1625.041 1089.500 C 1625.470 1088.950, 1626.136 1086.813, 1626.522 1084.750 C 1626.907 1082.688, 1627.520 1081, 1627.884 1081 C 1628.248 1081, 1629.137 1078.456, 1629.859 1075.347 C 1630.582 1072.239, 1631.563 1068.976, 1632.038 1068.097 C 1632.514 1067.219, 1633.556 1064.925, 1634.354 1063 C 1638.016 1054.163, 1641.527 1047.097, 1644.539 1042.500 C 1646.340 1039.750, 1648.844 1035.475, 1650.103 1033 C 1651.362 1030.525, 1652.667 1028.275, 1653.003 1028 C 1653.339 1027.725, 1654.244 1025.925, 1655.015 1024 C 1655.785 1022.075, 1656.997 1019.905, 1657.708 1019.179 C 1658.418 1018.452, 1659 1017.214, 1659 1016.429 C 1659 1015.643, 1659.378 1015, 1659.840 1015 C 1660.302 1015, 1661.274 1013.200, 1662 1011 C 1662.726 1008.800, 1663.649 1007, 1664.052 1007 C 1664.454 1007, 1665.066 1005.875, 1665.411 1004.500 C 1665.756 1003.125, 1666.480 1002, 1667.019 1002 C 1667.559 1002, 1668 1001.298, 1668 1000.440 C 1668 999.583, 1669.768 995.177, 1671.928 990.650 C 1674.089 986.123, 1676.163 981.200, 1676.537 979.710 C 1676.911 978.219, 1677.568 977, 1677.997 977 C 1678.426 977, 1679.073 975.425, 1679.434 973.500 C 1679.795 971.575, 1680.459 970, 1680.909 970 C 1681.359 970, 1682.300 967.300, 1683 964 C 1683.700 960.700, 1684.634 958, 1685.075 958 C 1685.517 958, 1686.181 955.975, 1686.552 953.500 C 1686.923 951.025, 1687.575 949, 1688 949 C 1688.426 949, 1689.325 946.075, 1690 942.500 C 1690.675 938.925, 1691.553 936, 1691.953 936 C 1692.353 936, 1693.243 932.850, 1693.931 929 C 1694.619 925.150, 1695.551 922, 1696.003 922 C 1696.455 922, 1697.144 920.105, 1697.536 917.788 C 1697.927 915.472, 1698.619 912.885, 1699.073 912.038 C 1699.868 910.557, 1702.207 897.769, 1701.732 897.500 C 1701.605 897.427, 1700.600 897.528, 1699.500 897.722 M 133.020 940.546 C 136.741 945.087, 151.688 959.346, 168.613 974.500 C 169.841 975.600, 175.690 980.550, 181.610 985.500 C 187.529 990.450, 194.729 996.750, 197.609 999.500 C 200.488 1002.250, 205.663 1006.975, 209.109 1010 C 212.555 1013.025, 216.232 1016.329, 217.280 1017.343 C 219.595 1019.581, 240.731 1035, 241.484 1035 C 242.010 1035, 246.371 1037.966, 258.627 1046.656 C 261.997 1049.045, 265.104 1051, 265.533 1051 C 265.961 1051, 267.719 1052.074, 269.440 1053.387 C 273.135 1056.205, 295.561 1069.717, 301.953 1072.977 C 310.676 1077.425, 330.742 1084.866, 338.061 1086.366 C 342.153 1087.204, 351.079 1088.837, 357.898 1089.994 C 396.876 1096.608, 423.117 1107.206, 443.096 1124.405 C 451.898 1131.983, 453.873 1133.574, 460 1138.029 C 468.017 1143.858, 472.369 1146.105, 492 1154.551 C 500.525 1158.219, 512 1163.230, 517.500 1165.686 C 531.032 1171.730, 530.160 1171.364, 542 1175.975 C 547.775 1178.224, 553.400 1180.481, 554.500 1180.991 C 555.600 1181.501, 562.575 1184.205, 570 1187 C 577.425 1189.795, 584.400 1192.506, 585.500 1193.024 C 588.158 1194.276, 601.025 1198.920, 620 1205.476 C 655.014 1217.574, 711.467 1224.609, 821.757 1230.617 C 850.505 1232.184, 856.146 1232.109, 853.468 1230.196 C 852.933 1229.813, 851.146 1227.490, 849.497 1225.034 C 847.849 1222.577, 845.825 1219.839, 845 1218.949 C 844.175 1218.058, 842.825 1216.325, 842 1215.096 C 840.487 1212.843, 837.763 1209.297, 835 1205.985 C 834.175 1204.996, 832.825 1203.180, 832 1201.951 C 831.175 1200.721, 829.600 1198.694, 828.500 1197.446 C 827.400 1196.198, 825.825 1194.166, 825 1192.931 C 824.175 1191.696, 821.700 1188.571, 819.500 1185.987 C 817.300 1183.402, 814.735 1180.211, 813.800 1178.894 C 811.590 1175.783, 804.286 1165.790, 803.279 1164.500 C 802.850 1163.950, 801.374 1162.100, 799.999 1160.389 C 798.625 1158.678, 796.825 1156.276, 796 1155.051 C 795.175 1153.826, 793.600 1151.802, 792.500 1150.554 C 791.400 1149.306, 789.825 1147.290, 789 1146.074 C 787.472 1143.821, 784.700 1140.222, 782 1136.985 C 781.175 1135.996, 779.825 1134.170, 779 1132.928 C 778.175 1131.686, 776.825 1129.942, 776 1129.051 C 775.175 1128.161, 773.150 1125.423, 771.500 1122.966 C 769.850 1120.510, 768.150 1118.050, 767.722 1117.500 C 767.295 1116.950, 764.934 1113.800, 762.477 1110.500 C 760.020 1107.200, 757.670 1104.050, 757.254 1103.500 C 753.687 1098.780, 745 1085.223, 745 1084.376 C 745 1083.438, 744.259 1082.378, 740.154 1077.437 C 739.668 1076.852, 738.746 1075.394, 738.105 1074.197 C 735.785 1069.862, 721.461 1054.971, 714.493 1049.650 C 705.532 1042.808, 686.759 1034.950, 671.500 1031.655 C 663.767 1029.985, 650.536 1028.436, 636 1027.500 C 623.065 1026.668, 602.401 1023.589, 585.272 1019.943 C 563.448 1015.298, 525.145 1003.942, 519.500 1000.445 C 517.422 999.157, 495.419 992.602, 481.500 989.124 C 469.363 986.092, 442.289 982.161, 425.500 980.993 C 401.083 979.296, 393.590 978.157, 382.253 974.419 C 362.977 968.063, 336.668 962.493, 314 959.968 C 302.208 958.654, 271.022 958.647, 257 959.954 C 221.743 963.241, 190.288 958.669, 164.234 946.470 C 155.820 942.531, 151.804 941.376, 143.500 940.505 C 140.200 940.159, 136.159 939.620, 134.520 939.308 C 131.743 938.779, 131.641 938.864, 133.020 940.546 M 1138 1419.598 C 1136.075 1419.811, 1128.650 1420.471, 1121.500 1421.065 C 1073.357 1425.065, 1022.448 1436.187, 965.500 1455.145 C 892.204 1479.547, 837.747 1485.101, 781.500 1473.912 C 763.925 1470.416, 741.306 1463.460, 726.500 1456.999 C 723.750 1455.799, 716.100 1452.823, 709.500 1450.385 C 702.900 1447.947, 696.600 1445.532, 695.500 1445.017 C 694.400 1444.503, 689 1442.675, 683.500 1440.954 C 678 1439.234, 672.412 1437.391, 671.082 1436.858 C 667.546 1435.442, 645.069 1430.163, 633.500 1428.032 C 602.991 1422.411, 564.231 1422.066, 534 1427.145 C 516.937 1430.012, 482.939 1440.255, 473.786 1445.286 C 468.513 1448.185, 466.584 1452.744, 467.385 1460.415 C 467.734 1463.762, 468.465 1466.650, 469.010 1466.833 C 469.554 1467.017, 470 1467.823, 470 1468.626 C 470 1469.428, 470.459 1470.628, 471.020 1471.292 C 475.209 1476.255, 476.998 1478.578, 476.999 1479.058 C 476.999 1479.364, 478.875 1480.442, 481.166 1481.453 C 485.613 1483.415, 490.528 1483.363, 523.500 1481.004 C 540.957 1479.755, 573.738 1479.782, 588.500 1481.057 C 619.212 1483.710, 646.049 1490.788, 670 1502.551 C 723.957 1529.052, 789.576 1541.624, 855.403 1538.072 C 881.750 1536.650, 911.512 1532.844, 930.500 1528.467 C 933.800 1527.706, 942.575 1525.690, 950 1523.987 C 969.776 1519.449, 990.223 1513.173, 1033 1498.510 C 1053.597 1491.450, 1095.581 1481.953, 1123.567 1478.024 C 1168.856 1471.666, 1192.982 1472.693, 1275.500 1484.493 C 1292.550 1486.932, 1315.725 1489.859, 1327 1490.999 C 1362.464 1494.584, 1368.509 1495.715, 1398.232 1504.325 C 1433.131 1514.435, 1448.176 1516.423, 1484.894 1515.775 C 1507.200 1515.382, 1512.181 1515.024, 1515.712 1513.560 C 1518.029 1512.599, 1520.197 1510.955, 1520.530 1509.907 C 1520.862 1508.858, 1521.533 1508, 1522.020 1508 C 1523.168 1508, 1524.987 1501.424, 1524.994 1497.250 C 1524.997 1495.463, 1525.450 1494, 1526 1494 C 1526.550 1494, 1527 1491.750, 1527 1489 C 1527 1486.250, 1526.550 1484, 1526 1484 C 1525.450 1484, 1525 1482.717, 1525 1481.149 C 1525 1476.532, 1523.137 1472.512, 1520.192 1470.772 C 1516.503 1468.593, 1504.409 1466.472, 1481.539 1463.994 C 1447.897 1460.347, 1440.563 1458.945, 1416.998 1451.652 C 1385.588 1441.931, 1387.693 1442.395, 1341.500 1435 C 1322.494 1431.956, 1276.749 1425.992, 1253.500 1423.526 C 1245.800 1422.709, 1235.225 1421.530, 1230 1420.906 C 1221.050 1419.838, 1145.553 1418.764, 1138 1419.598 M 538.558 1563.507 C 533.395 1568.981, 533.815 1570.974, 541.250 1576.307 C 544.688 1578.773, 549.525 1582.690, 552 1585.012 C 558.478 1591.091, 576.373 1603.635, 584.236 1607.607 C 589.918 1610.479, 601.098 1614.440, 629 1623.468 C 647.196 1629.356, 759.840 1657.585, 776.500 1660.432 C 805.375 1665.366, 853.994 1667.366, 890 1665.100 C 939.306 1661.997, 1017.536 1652.438, 1099.500 1639.503 C 1198.445 1623.887, 1254.587 1620.746, 1312.500 1627.587 C 1319.650 1628.432, 1327.975 1628.846, 1331 1628.508 C 1367.552 1624.423, 1378.054 1622.604, 1380.727 1619.894 C 1384.678 1615.888, 1385.264 1614.570, 1385.723 1608.661 C 1386.199 1602.521, 1386.186 1602.485, 1381.850 1597.882 C 1376.056 1591.731, 1364.137 1583.255, 1358.801 1581.492 C 1352.750 1579.492, 1324.366 1575.029, 1296 1571.617 C 1267.527 1568.192, 1254.735 1567.501, 1220.500 1567.540 C 1180.662 1567.585, 1171.067 1568.397, 1127 1575.456 C 1111.875 1577.879, 1095.900 1580.380, 1091.500 1581.014 C 1087.100 1581.648, 1082.600 1582.539, 1081.500 1582.994 C 1080.400 1583.449, 1073.875 1584.526, 1067 1585.386 C 1038.128 1589.001, 1001.191 1593.394, 969.500 1596.983 C 959.600 1598.104, 938 1600.577, 921.500 1602.478 C 865.881 1608.888, 848.906 1609.851, 822.500 1608.091 C 801.123 1606.667, 791.496 1605.194, 763 1598.990 C 748.070 1595.739, 735.387 1593.271, 709 1588.483 C 695.525 1586.037, 683.061 1583.558, 681.302 1582.972 C 678.371 1581.997, 662.070 1578.882, 618 1570.874 C 596.427 1566.955, 559.540 1561.304, 549.808 1560.427 L 542.116 1559.735 538.558 1563.507 M 661 1717.119 C 638.810 1720.254, 633.303 1721.880, 631.513 1725.825 C 630.970 1727.021, 630.182 1728, 629.763 1728 C 629.343 1728, 629 1729.800, 629 1732 C 629 1734.200, 629.420 1736, 629.933 1736 C 630.446 1736, 631.118 1736.796, 631.427 1737.769 C 632.076 1739.816, 640.373 1748.567, 644.445 1751.500 C 645.972 1752.600, 647.777 1754.025, 648.455 1754.666 C 651.402 1757.451, 671.414 1766.072, 681.500 1768.902 C 704.171 1775.262, 725.277 1778.544, 768.500 1782.431 C 826.934 1787.685, 869.134 1790.006, 960.500 1792.989 C 994.050 1794.084, 1035.675 1795.484, 1053 1796.100 C 1095.116 1797.598, 1114.718 1796.746, 1183 1790.450 C 1234.217 1785.728, 1279.647 1779.092, 1306.500 1772.408 C 1326.882 1767.335, 1346.253 1758.695, 1355.446 1750.575 L 1360.392 1746.207 1356.486 1738.353 C 1354.337 1734.034, 1352.224 1730.350, 1351.789 1730.167 C 1351.355 1729.983, 1351 1729.290, 1351 1728.625 C 1351 1726.799, 1342.972 1719.526, 1339 1717.753 C 1326.560 1712.200, 1313.766 1712.480, 1280.804 1719.023 C 1218.730 1731.345, 1201.802 1733.266, 1130.500 1736.075 C 1090.853 1737.637, 1005.091 1737.723, 978 1736.228 C 965.625 1735.545, 933.675 1734.308, 907 1733.479 C 835.207 1731.249, 815.906 1729.769, 776.500 1723.474 C 726.845 1715.542, 721.071 1714.848, 701.500 1714.460 C 684.473 1714.122, 680.267 1714.398, 661 1717.119 M 730.290 1879.698 C 724.076 1881.530, 717.239 1887.556, 716.354 1891.980 C 716.022 1893.641, 715.356 1895, 714.875 1895 C 714.394 1895, 714 1896.800, 714 1899 C 714 1901.200, 714.344 1903, 714.763 1903 C 715.183 1903, 716.060 1905.244, 716.711 1907.986 C 717.984 1913.345, 718.525 1914.204, 724.225 1919.912 C 733.054 1928.754, 772.812 1940.258, 808.968 1944.433 C 854.651 1949.707, 908.301 1948.926, 1010.927 1941.493 C 1029.861 1940.122, 1049.886 1938.998, 1055.427 1938.996 C 1089.694 1938.982, 1201.696 1926.483, 1226.329 1919.924 C 1231.618 1918.516, 1274.890 1904.061, 1285.500 1900.159 L 1293.500 1897.216 1293.794 1891.815 C 1294.037 1887.346, 1293.686 1885.945, 1291.762 1883.706 L 1289.436 1881 1214.468 1881.023 C 1173.236 1881.035, 1127.575 1881.475, 1113 1882.001 C 1098.425 1882.526, 1068.500 1883.637, 1046.500 1884.471 C 986.114 1886.759, 875.931 1888.161, 847.500 1887.003 C 833.787 1886.445, 814.928 1884.934, 803.500 1883.479 C 758.129 1877.700, 740.203 1876.775, 730.290 1879.698" stroke="none" fill="#fffcfc" fill-rule="evenodd"/><path d="" stroke="none" fill="#fcfcfc" fill-rule="evenodd"/></svg>